<?xml version="1.0" encoding="utf-8"?>
<!-- Generator: Adobe Illustrator 27.5.0, SVG Export Plug-In . SVG Version: 6.00 Build 0)  -->
<svg version="1.1" xmlns="http://www.w3.org/2000/svg" xmlns:xlink="http://www.w3.org/1999/xlink" x="0px" y="0px"
	 viewBox="0 0 500 500" style="enable-background:new 0 0 500 500;" xml:space="preserve">
<g id="Background_Complete">
	<g>
		<g>
			<path style="fill:#EBEBEB;" d="M122.756,157.857c0.629-4.567-5.817-8.324-10.66-8.715c-2.31-0.186-4.709,0.167-6.897-0.596
				c-4.741-1.652-6.634-7.777-11.26-9.728c-3.458-1.459-7.44-0.16-10.793,1.527c-3.353,1.687-6.666,3.811-10.412,4.051
				c-3.258,0.208-6.796-1-9.647,0.592c-2.124,1.186-3.237,3.634-5.195,5.078c-1.915,1.413-4.414,1.712-6.79,1.841
				c-2.377,0.129-4.837,0.153-7.001,1.144c-2.164,0.991-3.954,3.279-3.505,5.616L122.756,157.857z"/>
		</g>
	</g>
	<g>
		<g>
			<path style="fill:#F5F5F5;" d="M456.289,108.064c0.685-4.98-6.343-9.077-11.624-9.502c-2.518-0.203-5.134,0.182-7.52-0.649
				c-5.169-1.802-7.234-8.48-12.278-10.608c-3.771-1.59-8.112-0.175-11.768,1.665c-3.656,1.84-7.269,4.155-11.353,4.417
				c-3.553,0.227-7.411-1.09-10.519,0.645c-2.316,1.293-3.53,3.962-5.664,5.537c-2.089,1.54-4.813,1.867-7.404,2.008
				c-2.591,0.141-5.274,0.167-7.634,1.248c-2.36,1.08-4.312,3.576-3.822,6.124L456.289,108.064z"/>
		</g>
	</g>
	<g>
		<g>
			<path style="fill:#F5F5F5;" d="M363.37,162.604c0.685-4.98-6.343-9.077-11.624-9.502c-2.518-0.203-5.134,0.182-7.52-0.65
				c-5.169-1.802-7.234-8.48-12.278-10.607c-3.771-1.59-8.112-0.175-11.768,1.665c-3.656,1.84-7.269,4.155-11.353,4.417
				c-3.553,0.227-7.411-1.09-10.519,0.645c-2.316,1.293-3.529,3.962-5.664,5.537c-2.089,1.54-4.813,1.867-7.404,2.008
				c-2.591,0.141-5.274,0.167-7.634,1.247c-2.36,1.08-4.312,3.576-3.822,6.124L363.37,162.604z"/>
		</g>
	</g>
	<g>
		<g>
			<path style="fill:#EBEBEB;" d="M305.315,78.063c0.955-6.934-8.832-12.639-16.186-13.231c-3.507-0.283-7.149,0.253-10.472-0.904
				c-7.198-2.509-10.073-11.808-17.097-14.771c-5.251-2.215-11.296-0.243-16.387,2.319c-5.091,2.562-10.121,5.786-15.809,6.15
				c-4.947,0.317-10.319-1.518-14.647,0.899c-3.225,1.801-4.915,5.517-7.887,7.71c-2.908,2.145-6.702,2.599-10.31,2.796
				c-3.608,0.196-7.344,0.233-10.63,1.737c-3.286,1.504-6.004,4.979-5.322,8.527L305.315,78.063z"/>
		</g>
	</g>
	<g>
		<g>
			<path style="fill:#EBEBEB;" d="M86.313,326.084c2.627-1.745,3.602-5.162,3.7-8.314c0.098-3.152-0.476-6.323-0.065-9.45
				c0.33-2.512-0.132-5.151-0.328-7.676c-0.386-4.968-3.318-5.708-5.425-10.224c-2.045-4.381,1.048-5.646-0.08-7.544
				c-0.551-0.929-2.101-0.607-3.067-0.124c-0.966,0.483-1.705,1.316-2.395,2.147c-3.399,4.094-6.349,9.097-5.868,14.396
				c0.239,2.632,1.311,5.111,1.878,7.693c0.89,4.056,0.572,8.494,2.641,12.094c1.925,3.352,5.539,5.303,8.97,7.084"/>
		</g>
		<g>
			<path style="fill:#EBEBEB;" d="M90.611,342.026c-1.051-6.904,2.304-15.349,7.316-20.212c2.124-2.061,4.711-3.751,6.173-6.325
				c1.683-2.962,1.627-6.687,3.391-9.601c2.638-4.36,8.373-5.543,13.46-5.84c5.087-0.297,15.799-6.274,14.64-3.403
				c-3.768,10.883-2.96,10.267-16.447,20.251c-5.537,4.099-0.469,16.315-15.805,21.056c-4.21,1.302-9.388,1.207-12.627,4.195"/>
		</g>
		<g>
			<g>
				<path style="fill:#455A64;" d="M93.214,412.311c0.056,0.081,0.108,0.166,0.153,0.258L93.214,412.311z"/>
			</g>
			<g>
				<path style="fill:#EBEBEB;" d="M72.636,393.319c7.855,2.846,14.521,8.785,18.784,15.971l1.794,3.021
					c-0.765-1.106-2.458-1.193-3.855-1.361c-2.594-0.311-5.076-1.491-6.955-3.306c-1.184-1.144-2.143-2.537-3.499-3.472
					c-1.213-0.837-2.661-1.248-4.007-1.85c-3.045-1.362-5.562-3.701-8.564-5.156c-3.077-1.491-6.521-1.99-9.836-2.827
					c-3.315-0.837-6.7-2.134-8.89-4.76C55.109,389.877,64.201,390.264,72.636,393.319z"/>
			</g>
		</g>
		<g>
			<path style="fill:#EBEBEB;" d="M60.622,350.933c2.858,1.324,4.837,4.079,7.648,5.5c2.535,1.282,5.487,1.357,8.247,2.027
				c6.615,1.607,14.804,13.876,19.256,20.012c-1.791-0.09-5.349-1.588-8.645-1.54c-3.296,0.048-7.623-0.883-10.902-1.225
				c-10.747-1.121-15.908-6.349-24.045-13.275c-4.896-4.167-10.781-5.841-13.881-11.473
				C45.232,354.02,53.748,347.747,60.622,350.933z"/>
		</g>
		<g>
			<path style="fill:#EBEBEB;" d="M90.649,347.931c-3.765-10.98-13.646-19.41-24.08-24.494s-22.902-5.832-33.869-2.031
				c6.245,8.213,12.585,9.245,22.625,11.622c1.734,0.41,6.057-0.876,9.194,1.377c1.262,0.906,1.549,4.535,8.827,5.882
				C80.496,341.609,86.594,343.063,90.649,347.931"/>
		</g>
		<g>
			<g>
				<path style="fill:#E0E0E0;" d="M82.711,303.035c0.009,0,0.02,0.121,0.033,0.357c0.011,0.262,0.026,0.608,0.044,1.046
					c0.015,0.47,0.033,1.037,0.055,1.7c0.049,0.676,0.104,1.448,0.166,2.315c0.285,3.477,0.929,8.503,2.396,14.574
					c1.411,6.084,3.635,13.187,6.1,21.077c2.476,7.884,4.946,16.663,6.737,26.046c3.712,18.765,4.329,36.164,3.882,48.652
					c-0.436,12.514-1.728,20.164-1.728,20.164c-0.009-0.001-0.004-0.122,0.013-0.358c0.023-0.262,0.053-0.607,0.091-1.043
					c0.094-0.947,0.228-2.29,0.398-4.005c0.27-3.483,0.72-8.523,0.858-14.769c0.352-12.472-0.322-29.822-4.025-48.542
					c-1.787-9.362-4.235-18.115-6.685-26.004c-2.438-7.894-4.631-15.023-6-21.135c-1.426-6.099-2.017-11.152-2.24-14.643
					c-0.045-0.87-0.084-1.645-0.119-2.323c-0.002-0.665-0.003-1.233-0.005-1.705c0.003-0.439,0.006-0.785,0.008-1.048
					C82.695,303.155,82.702,303.034,82.711,303.035z"/>
			</g>
		</g>
		<g>
			<g>
				<path style="fill:#E0E0E0;" d="M43.614,322.785c0-0.018,0.215-0.029,0.625-0.032c0.409,0.003,1.015-0.017,1.792,0.025
					c1.555,0.049,3.805,0.223,6.559,0.643c2.749,0.432,6.012,1.101,9.516,2.258c3.502,1.141,7.271,2.727,10.879,5.011
					c7.182,4.618,12.587,10.26,15.97,14.669c1.695,2.211,2.934,4.096,3.733,5.431c0.414,0.659,0.696,1.194,0.898,1.55
					c0.197,0.359,0.293,0.552,0.277,0.561c-0.015,0.009-0.142-0.166-0.367-0.507c-0.231-0.338-0.54-0.855-0.979-1.495
					c-0.849-1.298-2.129-3.143-3.852-5.313c-3.436-4.325-8.844-9.881-15.959-14.456c-3.56-2.254-7.286-3.839-10.751-4.995
					c-3.466-1.172-6.699-1.874-9.425-2.35c-2.731-0.464-4.965-0.693-6.511-0.804c-0.773-0.072-1.375-0.085-1.783-0.122
					C43.828,322.827,43.613,322.803,43.614,322.785z"/>
			</g>
		</g>
		<g>
			<g>
				<path style="fill:#E0E0E0;" d="M124.486,305.498c0.005,0.017-0.162,0.087-0.481,0.214c-0.373,0.149-0.834,0.334-1.393,0.557
					c-1.197,0.505-2.947,1.232-4.913,2.455c-0.968,0.618-2.019,1.365-2.834,2.411c-0.802,1.077-1.499,2.374-2.184,3.74
					c-0.672,1.378-1.313,2.86-1.888,4.426c-0.607,1.533-0.895,3.292-1.743,4.922c-0.838,1.621-2.023,2.982-3.296,4.101
					c-1.273,1.125-2.604,2.068-3.849,2.972c-2.512,1.788-4.64,3.554-6.302,5.18c-1.633,1.651-2.865,3.08-3.666,4.105
					c-0.375,0.472-0.683,0.861-0.933,1.176c-0.218,0.266-0.34,0.401-0.355,0.39c-0.015-0.01,0.078-0.165,0.269-0.451
					c0.23-0.332,0.513-0.741,0.857-1.238c0.755-1.068,1.951-2.543,3.566-4.242c1.641-1.674,3.777-3.494,6.279-5.307
					c2.45-1.83,5.352-3.777,6.966-6.924c0.811-1.547,1.096-3.271,1.728-4.861c0.589-1.583,1.245-3.074,1.937-4.463
					c0.708-1.382,1.419-2.676,2.27-3.789c0.894-1.112,1.984-1.85,2.984-2.463c2.027-1.204,3.808-1.88,5.034-2.331
					c0.617-0.218,1.1-0.374,1.432-0.467C124.302,305.517,124.481,305.481,124.486,305.498z"/>
			</g>
		</g>
		<g>
			<g>
				<path style="fill:#E0E0E0;" d="M53.008,356.31c0.01-0.015,0.175,0.078,0.481,0.268c0.351,0.226,0.788,0.507,1.322,0.849
					c1.144,0.742,2.787,1.836,4.866,3.1c2.081,1.258,4.612,2.681,7.586,3.881c2.974,1.208,6.388,2.157,9.927,3.341
					c7.164,2.285,12.827,6.232,16.68,9.183c1.939,1.486,3.46,2.746,4.506,3.622c0.482,0.413,0.876,0.75,1.194,1.022
					c0.269,0.238,0.405,0.37,0.394,0.384c-0.011,0.014-0.169-0.091-0.459-0.303c-0.333-0.251-0.748-0.564-1.254-0.946
					c-1.085-0.827-2.639-2.042-4.6-3.486c-3.906-2.872-9.532-6.722-16.626-8.984c-3.517-1.177-6.944-2.145-9.941-3.39
					c-3.001-1.24-5.534-2.709-7.599-4.013c-2.064-1.31-3.677-2.452-4.787-3.246c-0.511-0.375-0.93-0.683-1.267-0.93
					C53.143,356.446,52.998,356.325,53.008,356.31z"/>
			</g>
		</g>
		<g>
			<path style="fill:#EBEBEB;" d="M101.669,375.533c4.98-5.322,3.717-14.636,9.057-19.596c3.323-3.087,8.384-3.627,11.849-6.553
				c2.263-1.91,3.647-4.675,5.801-6.706c4.06-3.826,10.089-4.455,15.65-4.887c-0.89,10.723-7.949,20.715-17.759,25.136
				c-2.357,1.062-4.936,1.879-6.735,3.736c-1.253,1.293-2.012,2.985-3.157,4.375c-1.761,2.139-4.359,3.457-7.04,4.154
				c-2.681,0.697-5.472,0.827-8.24,0.952"/>
		</g>
		<g>
			<g>
				<path style="fill:#E0E0E0;" d="M133.905,344.534c0.017,0.007-0.041,0.166-0.166,0.464c-0.126,0.297-0.304,0.741-0.617,1.271
					c-0.585,1.078-1.616,2.555-3.18,4.103c-1.547,1.566-3.632,3.162-5.999,4.816c-2.373,1.652-4.993,3.423-7.553,5.54
					c-5.141,4.214-9.258,8.638-12.176,11.872c-1.401,1.591-2.555,2.901-3.414,3.878c-0.371,0.42-0.678,0.767-0.931,1.054
					c-0.217,0.237-0.338,0.357-0.352,0.345c-0.014-0.012,0.08-0.153,0.271-0.412c0.233-0.303,0.515-0.672,0.856-1.117
					c0.758-0.958,1.87-2.333,3.294-3.991c2.854-3.303,6.946-7.788,12.123-12.031c2.577-2.132,5.231-3.908,7.609-5.531
					c2.376-1.628,4.458-3.176,6.016-4.686c1.574-1.493,2.63-2.909,3.262-3.943C133.592,345.137,133.852,344.509,133.905,344.534z"/>
			</g>
		</g>
		<g>
			<path style="fill:#EBEBEB;" d="M107.428,403.118c0.15-3.947,1.398-8.1,4.68-10.223c1.409-0.911,3.058-1.464,4.309-2.582
				c1.22-1.09,1.944-2.612,2.86-3.967c2.647-3.921,6.871-6.434,10.956-8.82c1.612-0.941,3.224-1.883,4.836-2.824
				c0.491-0.287,1.043-0.584,1.598-0.46c0.535,0.12,0.92,0.62,1.062,1.149c0.142,0.53,0.085,1.09,0.02,1.635
				c-0.39,3.278-1.024,6.527-1.896,9.71c-0.754,2.754-1.749,5.564-3.772,7.578c-2.257,2.247-5.464,3.193-8.209,4.808
				c-2.328,1.371-4.381,3.26-6.922,4.179C114,404.367,110.536,403.546,107.428,403.118"/>
		</g>
		<g>
			<g>
				<path style="fill:#E0E0E0;" d="M131.421,382.952c0.028,0.021-0.264,0.472-0.821,1.268c-0.557,0.795-1.378,1.936-2.436,3.315
					c-2.129,2.723-5.179,6.544-9.596,9.601c-2.249,1.464-4.543,2.527-6.588,3.564c-2.053,1.019-3.884,1.965-5.373,2.839
					c-1.488,0.875-2.646,1.662-3.387,2.278c-0.752,0.602-1.131,0.984-1.167,0.95c-0.013-0.012,0.07-0.118,0.242-0.309
					c0.177-0.185,0.419-0.482,0.793-0.796c0.711-0.672,1.851-1.516,3.328-2.439c1.478-0.923,3.304-1.909,5.347-2.952
					c2.032-1.059,4.323-2.14,6.515-3.569c4.325-2.991,7.404-6.741,9.597-9.397c1.036-1.297,1.898-2.376,2.562-3.208
					C131.044,383.341,131.392,382.931,131.421,382.952z"/>
			</g>
		</g>
		<g>
			<g>
				<path style="fill:#E0E0E0;" d="M73.688,396.842c0.017-0.032,0.527,0.206,1.439,0.665c0.916,0.448,2.204,1.174,3.755,2.137
					c1.556,0.956,3.341,2.202,5.248,3.684c1.89,1.504,3.891,3.255,5.854,5.237c1.949,1.997,3.666,4.029,5.137,5.944
					c1.449,1.933,2.665,3.739,3.593,5.311c0.936,1.567,1.639,2.867,2.071,3.791c0.443,0.919,0.672,1.434,0.639,1.45
					c-0.032,0.016-0.323-0.468-0.819-1.355c-0.486-0.892-1.235-2.159-2.205-3.692c-0.963-1.538-2.202-3.31-3.661-5.213
					c-1.481-1.885-3.195-3.891-5.128-5.872c-1.946-1.966-3.922-3.714-5.781-5.227c-1.877-1.491-3.627-2.76-5.148-3.75
					c-1.516-0.997-2.77-1.767-3.653-2.269C74.151,397.173,73.672,396.874,73.688,396.842z"/>
			</g>
		</g>
	</g>
	<g>
		<g>
			<path style="fill:#EBEBEB;" d="M381.358,365.047c-1.713-1.189-2.349-3.517-2.413-5.665c-0.064-2.148,0.31-4.309,0.042-6.44
				c-0.215-1.711,0.086-3.51,0.214-5.23c0.252-3.385,2.164-3.889,3.538-6.966c1.333-2.985-0.683-3.847,0.052-5.141
				c0.36-0.633,1.37-0.414,2-0.084c0.63,0.329,1.112,0.896,1.562,1.463c2.216,2.789,4.14,6.199,3.827,9.809
				c-0.156,1.794-0.855,3.482-1.225,5.242c-0.58,2.764-0.373,5.788-1.722,8.241c-1.255,2.284-3.612,3.613-5.849,4.827"/>
		</g>
		<g>
			<path style="fill:#EBEBEB;" d="M378.555,375.91c0.685-4.704-1.503-10.459-4.771-13.772c-1.385-1.404-3.072-2.556-4.025-4.31
				c-1.097-2.018-1.061-4.556-2.211-6.542c-1.72-2.971-5.46-3.777-8.777-3.98c-3.317-0.202-10.303-4.275-9.547-2.318
				c2.458,7.415,1.93,6.996,10.725,13.799c3.611,2.793,0.306,11.117,10.307,14.348c2.746,0.887,6.122,0.822,8.234,2.859"/>
		</g>
		<g>
			<g>
				<path style="fill:#455A64;" d="M376.857,423.802c-0.036,0.055-0.07,0.113-0.1,0.176L376.857,423.802z"/>
			</g>
			<g>
				<path style="fill:#EBEBEB;" d="M390.276,410.861c-5.122,1.939-9.47,5.986-12.249,10.883l-1.17,2.058
					c0.499-0.754,1.603-0.813,2.514-0.927c1.691-0.212,3.31-1.016,4.535-2.253c0.772-0.78,1.398-1.729,2.281-2.366
					c0.791-0.57,1.735-0.85,2.613-1.261c1.986-0.928,3.627-2.522,5.585-3.513c2.006-1.016,4.252-1.356,6.414-1.926
					c2.162-0.57,4.369-1.454,5.797-3.243C401.706,408.515,395.777,408.779,390.276,410.861z"/>
			</g>
		</g>
		<g>
			<path style="fill:#EBEBEB;" d="M398.111,381.979c-1.863,0.902-3.154,2.779-4.987,3.748c-1.653,0.873-3.578,0.925-5.378,1.382
				c-4.314,1.095-9.654,9.455-12.557,13.636c1.168-0.061,3.488-1.082,5.638-1.049c2.149,0.033,4.971-0.602,7.109-0.835
				c7.008-0.764,10.374-4.326,15.68-9.045c3.192-2.839,7.031-3.98,9.052-7.818C408.147,384.083,402.594,379.808,398.111,381.979z"/>
		</g>
		<g>
			<path style="fill:#EBEBEB;" d="M378.53,379.934c2.455-7.482,8.899-13.226,15.703-16.69c6.805-3.465,14.935-3.974,22.087-1.384
				c-4.072,5.597-8.207,6.299-14.754,7.919c-1.13,0.28-3.95-0.597-5.995,0.938c-0.823,0.617-1.01,3.091-5.756,4.008
				C385.151,375.626,381.174,376.617,378.53,379.934"/>
		</g>
		<g>
			<g>
				<path style="fill:#E0E0E0;" d="M383.707,349.341c0.009,0,0.016,0.082,0.023,0.243c0.004,0.192,0.008,0.426,0.014,0.713
					c0.016,0.628,0.008,1.553-0.063,2.743c-0.134,2.378-0.509,5.822-1.432,9.985c-1.699,8.368-5.964,19.402-8.255,32.173
					c-2.411,12.751-2.854,24.546-2.641,33.031c0.082,4.249,0.365,7.679,0.53,10.051c0.102,1.151,0.183,2.061,0.242,2.728
					c0.02,0.286,0.037,0.52,0.05,0.711c0.008,0.161,0.008,0.243-0.001,0.244c-0.009,0.001-0.027-0.08-0.052-0.238
					c-0.027-0.19-0.061-0.421-0.101-0.706c-0.083-0.665-0.197-1.573-0.34-2.72c-0.227-2.369-0.567-5.801-0.696-10.059
					c-0.307-8.502,0.078-20.342,2.498-33.138c2.303-12.828,6.629-23.856,8.407-32.158c0.965-4.137,1.393-7.554,1.589-9.919
					c0.102-1.184,0.143-2.105,0.161-2.731c0.015-0.287,0.028-0.52,0.038-0.712C383.687,349.424,383.698,349.341,383.707,349.341z"/>
			</g>
		</g>
		<g>
			<g>
				<path style="fill:#E0E0E0;" d="M409.202,362.799c0.001,0.041-0.567,0.078-1.588,0.167c-1.021,0.086-2.494,0.255-4.293,0.585
					c-3.568,0.67-8.556,2.025-13.198,5.109c-4.617,3.135-8.093,6.889-10.305,9.789c-1.109,1.454-1.939,2.684-2.491,3.548
					c-0.556,0.861-0.858,1.343-0.893,1.323c-0.016-0.009,0.04-0.14,0.161-0.383c0.124-0.241,0.298-0.602,0.559-1.045
					c0.501-0.9,1.288-2.168,2.369-3.663c2.156-2.981,5.628-6.822,10.309-10c4.74-3.147,9.81-4.455,13.426-5.04
					c1.823-0.286,3.313-0.401,4.343-0.424c0.514-0.025,0.915-0.005,1.186-0.003C409.06,362.768,409.202,362.781,409.202,362.799z"/>
			</g>
		</g>
		<g>
			<g>
				<path style="fill:#E0E0E0;" d="M356.464,351.02c0.011-0.033,0.483,0.079,1.307,0.376c0.819,0.306,2.008,0.768,3.351,1.605
					c0.662,0.427,1.383,0.943,1.963,1.722c0.538,0.768,1.011,1.637,1.463,2.573c0.448,0.938,0.871,1.942,1.251,3.007
					c0.41,1.076,0.589,2.223,1.106,3.254c1.017,2.103,2.896,3.45,4.51,4.708c1.644,1.249,3.044,2.506,4.111,3.656
					c1.051,1.167,1.821,2.177,2.302,2.907c0.481,0.732,0.731,1.144,0.701,1.164c-0.088,0.064-1.126-1.579-3.27-3.817
					c-1.089-1.103-2.482-2.305-4.137-3.529c-1.612-1.227-3.595-2.612-4.686-4.861c-0.552-1.11-0.733-2.291-1.119-3.313
					c-0.367-1.049-0.775-2.045-1.203-2.972c-0.431-0.924-0.884-1.789-1.383-2.531c-0.504-0.708-1.181-1.23-1.811-1.66
					c-1.28-0.853-2.437-1.366-3.225-1.725C356.901,351.232,356.453,351.056,356.464,351.02z"/>
			</g>
		</g>
		<g>
			<g>
				<path style="fill:#E0E0E0;" d="M403.076,385.643c0.021,0.029-0.362,0.348-1.075,0.898c-0.715,0.547-1.757,1.33-3.097,2.229
					c-1.341,0.893-2.991,1.904-4.962,2.76c-1.967,0.86-4.221,1.526-6.525,2.333c-4.641,1.556-8.287,4.165-10.829,6.099
					c-1.205,0.941-2.212,1.726-2.999,2.34c-0.709,0.553-1.111,0.848-1.134,0.82c-0.023-0.027,0.334-0.374,1.004-0.976
					c0.67-0.6,1.649-1.46,2.902-2.474c2.487-2.012,6.168-4.719,10.883-6.301c2.326-0.814,4.567-1.462,6.51-2.283
					c1.943-0.815,3.592-1.78,4.95-2.628c1.356-0.853,2.429-1.589,3.179-2.084C402.632,385.878,403.055,385.613,403.076,385.643z"/>
			</g>
		</g>
		<g>
			<path style="fill:#EBEBEB;" d="M371.343,398.741c-3.247-3.626-2.424-9.973-5.906-13.353c-2.167-2.104-5.467-2.471-7.727-4.465
				c-1.475-1.302-2.378-3.186-3.783-4.569c-2.647-2.607-6.579-3.036-10.206-3.33c0.58,7.307,5.184,14.115,11.581,17.127
				c1.537,0.724,3.219,1.28,4.392,2.546c0.817,0.881,1.312,2.034,2.059,2.981c1.148,1.457,2.842,2.355,4.591,2.831
				c1.748,0.475,3.569,0.563,5.373,0.649"/>
		</g>
		<g>
			<g>
				<path style="fill:#E0E0E0;" d="M350.322,377.619c0.101-0.059,0.702,1.707,2.775,3.734c1.016,1.021,2.379,2.077,3.941,3.19
					c1.562,1.109,3.313,2.33,5.001,3.792c3.393,2.909,6.047,5.97,7.889,8.223c0.919,1.132,1.633,2.07,2.116,2.726
					c0.48,0.658,0.73,1.034,0.702,1.055c-0.029,0.022-0.333-0.311-0.861-0.929c-0.598-0.698-1.347-1.573-2.239-2.615
					c-1.909-2.185-4.589-5.186-7.946-8.064c-1.671-1.446-3.386-2.661-4.944-3.799c-1.553-1.139-2.918-2.243-3.922-3.32
					c-1.016-1.066-1.674-2.076-2.041-2.81c-0.198-0.36-0.305-0.662-0.382-0.864C350.336,377.735,350.305,377.626,350.322,377.619z"
					/>
			</g>
		</g>
		<g>
			<path style="fill:#EBEBEB;" d="M367.588,417.538c-0.098-2.689-0.912-5.519-3.052-6.966c-0.919-0.621-1.994-0.997-2.81-1.76
				c-0.795-0.743-1.268-1.78-1.865-2.703c-1.726-2.672-4.481-4.384-7.145-6.01c-1.051-0.642-2.103-1.283-3.154-1.925
				c-0.32-0.195-0.68-0.398-1.042-0.313c-0.349,0.082-0.6,0.422-0.692,0.783c-0.092,0.361-0.055,0.743-0.013,1.114
				c0.254,2.233,0.668,4.447,1.237,6.617c0.492,1.876,1.14,3.791,2.46,5.164c1.472,1.531,3.563,2.176,5.353,3.276
				c1.518,0.934,2.857,2.221,4.514,2.847C363.302,418.389,365.562,417.83,367.588,417.538"/>
		</g>
		<g>
			<g>
				<path style="fill:#E0E0E0;" d="M351.942,403.797c0.064-0.046,0.926,1.092,2.342,2.903c1.429,1.783,3.417,4.311,6.223,6.358
					c1.419,0.98,2.928,1.725,4.262,2.456c1.343,0.721,2.542,1.404,3.51,2.044c0.967,0.64,1.709,1.226,2.166,1.692
					c0.464,0.457,0.669,0.757,0.648,0.774c-0.063,0.059-1.027-0.997-3.01-2.155c-0.98-0.592-2.184-1.235-3.538-1.931
					c-1.346-0.71-2.861-1.437-4.339-2.456c-2.896-2.114-4.853-4.712-6.216-6.561c-0.677-0.936-1.198-1.71-1.548-2.252
					C352.091,404.128,351.913,403.818,351.942,403.797z"/>
			</g>
		</g>
		<g>
			<g>
				<path style="fill:#E0E0E0;" d="M389.59,413.262c0.043,0.079-1.272,0.809-3.255,2.192c-1.985,1.378-4.599,3.476-7.12,6.165
					c-2.52,2.692-4.443,5.437-5.706,7.498c-1.264,2.062-1.926,3.412-2.006,3.374c-0.033-0.015,0.104-0.366,0.379-0.99
					c0.268-0.627,0.714-1.508,1.31-2.571c1.191-2.125,3.092-4.941,5.643-7.667c2.552-2.723,5.239-4.804,7.294-6.115
					c1.026-0.66,1.882-1.152,2.493-1.455C389.23,413.385,389.573,413.23,389.59,413.262z"/>
			</g>
		</g>
	</g>
</g>
<g id="Background_Simple" style="display:none;">
	<path style="display:inline;fill:#F5F5F5;" d="M412.523,87.464l-2.244-3.697c-18.914-31.169-53.112-49.958-89.167-47.678
		c-4.635,0.293-9.25,0.921-13.803,1.895C274.527,45,246.003,69.79,234.18,101.539c-6.953,18.672-8.896,40.17-22.092,54.991
		c-17.173,19.289-46.329,19.894-71.962,19.095c-25.634-0.799-54.808-0.118-71.898,19.247C57.526,207,54.125,224.247,54.988,240.488
		c2.285,43,32.248,81.449,70.354,100.56c38.106,19.111,82.971,20.823,124.675,12.416C308.44,341.687,364,309.344,397.395,259.39
		C430.791,209.436,439.243,141.38,412.523,87.464z"/>
</g>
<g id="Floor">
	<g>
		<g>
			<path style="fill:#263238;" d="M469.089,439.098c0,0.144-98.097,0.26-219.078,0.26c-121.023,0-219.099-0.117-219.099-0.26
				s98.076-0.26,219.099-0.26C370.991,438.837,469.089,438.954,469.089,439.098z"/>
		</g>
	</g>
</g>
<g id="Plant">
	<g>
		<g>
			<g>
				<g>
					<path style="fill:#FF725E;" d="M420.495,387.372c2.406,1.044,4.176,3.269,5.064,5.737c0.888,2.468,0.968,5.165,0.673,7.771
						c-0.572,5.043-3.437,10.134-6.523,14.164c-4.247-3.706-5.224-10.172-5.513-13.483
						C413.738,396.328,416.089,386.592,420.495,387.372"/>
				</g>
			</g>
		</g>
		<g>
			<g>
				<g>
					<path style="fill:#FF725E;" d="M424.646,423.368c-0.68-2.85,0.506-5.977,2.694-7.926c2.188-1.949,5.245-2.774,8.166-2.551
						c1.351,0.103,2.811,0.497,3.585,1.61c0.723,1.04,0.642,2.491,0.055,3.614c-0.587,1.122-1.602,1.962-2.675,2.635
						C432.792,423.058,428.807,424.617,424.646,423.368"/>
				</g>
			</g>
		</g>
		<g>
			<g>
				<g>
					<g>
						<path style="fill:#263238;" d="M419.2,438.831c-0.026-0.006,0.033-0.374,0.151-1.035c0.134-0.728,0.306-1.67,0.513-2.8
							c0.469-2.34,1.072-5.693,2.891-8.947c1.794-3.246,4.306-5.637,6.421-6.823c1.05-0.608,1.969-0.97,2.618-1.158
							c0.32-0.108,0.582-0.149,0.754-0.191c0.174-0.037,0.266-0.05,0.269-0.038c0.03,0.082-1.471,0.353-3.507,1.61
							c-2.042,1.221-4.469,3.588-6.233,6.779c-1.783,3.187-2.424,6.493-2.957,8.82c-0.257,1.173-0.466,2.125-0.628,2.778
							C419.33,438.479,419.224,438.836,419.2,438.831z"/>
					</g>
				</g>
			</g>
		</g>
		<g>
			<g>
				<g>
					<g>
						<path style="fill:#263238;" d="M419.36,394.945c0.013,0,0.03,0.155,0.052,0.452c0.02,0.336,0.046,0.767,0.077,1.3
							c0.06,1.129,0.127,2.764,0.192,4.784c0.131,4.041,0.233,9.626,0.208,15.796c-0.028,6.171-0.179,11.756-0.345,15.796
							c-0.082,2.02-0.163,3.654-0.233,4.782c-0.036,0.533-0.065,0.963-0.088,1.299c-0.024,0.297-0.043,0.452-0.056,0.452
							c-0.013-0.001-0.018-0.157-0.018-0.455c0.005-0.336,0.011-0.768,0.019-1.302c0.028-1.176,0.068-2.799,0.116-4.785
							c0.099-4.04,0.209-9.622,0.237-15.789c0.026-6.165-0.035-11.747-0.1-15.788c-0.031-1.986-0.056-3.61-0.075-4.786
							c-0.003-0.534-0.006-0.966-0.008-1.302C419.34,395.102,419.347,394.945,419.36,394.945z"/>
					</g>
				</g>
			</g>
		</g>
		<g>
			<g>
				<g>
					<path style="fill:#FF725E;" d="M417.299,426.438c-0.966-6.102-5.079-11.618-10.65-14.288c-1.419-0.68-3.272-1.124-4.439-0.068
						c-1.168,1.057-0.907,2.955-0.335,4.424c2.379,6.11,8.767,10.424,15.324,10.347"/>
				</g>
			</g>
		</g>
		<g>
			<g>
				<g>
					<g>
						<path style="fill:#263238;" d="M407.336,416.934c0.011-0.023,0.33,0.118,0.901,0.393c0.286,0.136,0.636,0.303,1.018,0.543
							c0.382,0.238,0.843,0.471,1.296,0.813c0.463,0.327,0.98,0.675,1.483,1.116c0.528,0.411,1.041,0.908,1.578,1.434
							c1.046,1.078,2.099,2.365,2.999,3.853c0.886,1.497,1.527,3.032,1.976,4.467c0.202,0.725,0.396,1.413,0.499,2.075
							c0.144,0.654,0.197,1.275,0.255,1.84c0.078,0.563,0.052,1.079,0.071,1.529c0.021,0.45-0.008,0.838-0.034,1.154
							c-0.046,0.632-0.084,0.979-0.109,0.977c-0.083-0.003,0.061-1.403-0.186-3.633c-0.073-0.556-0.141-1.166-0.295-1.807
							c-0.114-0.649-0.316-1.323-0.523-2.033c-0.459-1.405-1.098-2.908-1.968-4.378c-0.884-1.462-1.91-2.732-2.926-3.806
							c-0.522-0.524-1.02-1.022-1.532-1.437c-0.487-0.445-0.988-0.8-1.437-1.137C408.578,417.587,407.299,417.005,407.336,416.934z"
							/>
					</g>
				</g>
			</g>
		</g>
	</g>
</g>
<g id="Hearts">
	<g>
		<g>
			<g>
				<path style="fill:#FF725E;" d="M287.283,251.885c-0.036-0.747-0.35-1.464-0.81-2.053c-0.451-0.577-1.058-1.049-1.762-1.251
					c-0.748-0.215-1.582-0.107-2.251,0.29c-0.398,0.236-0.734,0.573-0.976,0.967c-0.188-0.376-0.456-0.712-0.786-0.972
					c-0.611-0.481-1.424-0.697-2.194-0.582c-0.724,0.109-1.388,0.497-1.911,1.01c-0.534,0.524-0.938,1.194-1.072,1.93
					c-0.167,0.921-0.055,1.949,0.374,2.782c0.453,0.879,1.23,1.616,2.041,2.181c1.365,0.949,3.166,2.145,3.166,2.145
					s1.659-1.079,3.137-1.842c0.879-0.454,1.745-1.083,2.309-1.895C287.081,253.825,287.328,252.82,287.283,251.885z"/>
			</g>
		</g>
	</g>
	<g>
		<g>
			<g>
				<path style="fill:#FF725E;" d="M409.237,199.81c-0.036-0.747-0.35-1.464-0.81-2.053c-0.451-0.577-1.058-1.049-1.762-1.251
					c-0.748-0.215-1.582-0.108-2.251,0.29c-0.398,0.236-0.733,0.573-0.976,0.967c-0.188-0.376-0.456-0.712-0.786-0.972
					c-0.611-0.482-1.424-0.697-2.194-0.582c-0.724,0.109-1.388,0.497-1.911,1.01c-0.534,0.524-0.938,1.194-1.072,1.93
					c-0.167,0.921-0.055,1.949,0.374,2.782c0.453,0.879,1.229,1.616,2.041,2.181c1.365,0.949,3.166,2.145,3.166,2.145
					s1.659-1.079,3.137-1.842c0.879-0.454,1.745-1.083,2.309-1.895C409.036,201.75,409.283,200.745,409.237,199.81z"/>
			</g>
		</g>
	</g>
</g>
<g id="Stars">
	<g>
		<path style="fill:#FF725E;" d="M389.064,126.195l1.758,0.951c0.259,0.14,0.261,0.51,0.003,0.653l-1.749,0.968
			c-0.062,0.034-0.113,0.086-0.147,0.149l-0.951,1.758c-0.14,0.259-0.51,0.26-0.653,0.003l-0.968-1.749
			c-0.034-0.062-0.086-0.113-0.148-0.147l-1.758-0.951c-0.259-0.14-0.26-0.51-0.003-0.653l1.749-0.968
			c0.062-0.034,0.113-0.086,0.147-0.148l0.951-1.758c0.14-0.259,0.51-0.26,0.653-0.003l0.968,1.749
			C388.95,126.11,389.001,126.161,389.064,126.195z"/>
	</g>
	<g>
		<path style="fill:#FF725E;" d="M282.476,199.174l1.758,0.951c0.259,0.14,0.26,0.51,0.003,0.653l-1.749,0.968
			c-0.062,0.034-0.113,0.086-0.147,0.149l-0.951,1.758c-0.14,0.259-0.51,0.26-0.653,0.003l-0.968-1.749
			c-0.034-0.062-0.086-0.113-0.149-0.147l-1.758-0.951c-0.259-0.14-0.26-0.51-0.003-0.653l1.749-0.968
			c0.062-0.034,0.113-0.086,0.147-0.148l0.951-1.758c0.14-0.259,0.51-0.26,0.653-0.003l0.968,1.749
			C282.362,199.089,282.413,199.141,282.476,199.174z"/>
	</g>
	<g>
		<path style="fill:#FF725E;" d="M271.764,188.48l0.916,0.495c0.135,0.073,0.136,0.266,0.002,0.34l-0.911,0.504
			c-0.032,0.018-0.059,0.045-0.077,0.077l-0.495,0.916c-0.073,0.135-0.266,0.136-0.34,0.002l-0.504-0.911
			c-0.018-0.032-0.045-0.059-0.077-0.077l-0.916-0.495c-0.135-0.073-0.136-0.266-0.002-0.34l0.911-0.504
			c0.033-0.018,0.059-0.045,0.077-0.077l0.495-0.916c0.073-0.135,0.266-0.136,0.34-0.002l0.504,0.911
			C271.705,188.436,271.732,188.463,271.764,188.48z"/>
	</g>
	<g>
		<path style="fill:#FF725E;" d="M369.501,259.361l0.916,0.495c0.135,0.073,0.136,0.266,0.002,0.34l-0.911,0.504
			c-0.032,0.018-0.059,0.045-0.077,0.077l-0.495,0.916c-0.073,0.135-0.266,0.136-0.34,0.002l-0.504-0.911
			c-0.018-0.032-0.045-0.059-0.077-0.077l-0.916-0.495c-0.135-0.073-0.136-0.266-0.002-0.34l0.911-0.504
			c0.032-0.018,0.059-0.045,0.077-0.077l0.495-0.916c0.073-0.135,0.266-0.136,0.34-0.002l0.504,0.911
			C369.441,259.317,369.468,259.344,369.501,259.361z"/>
	</g>
</g>
<g id="Sun">
	<g>
		<g>
			<g>
				<ellipse style="fill:#FF725E;" cx="77.648" cy="54.434" rx="15.807" ry="15.386"/>
			</g>
		</g>
		<g>
			<g>
				<g>
					<path style="fill:#FF725E;" d="M75.396,88.836c-0.092,0-0.166-2.842-0.166-6.346c0-3.506,0.075-6.347,0.166-6.347
						c0.092,0,0.166,2.841,0.166,6.347C75.563,85.995,75.488,88.836,75.396,88.836z"/>
				</g>
			</g>
		</g>
		<g>
			<g>
				<g>
					<path style="fill:#FF725E;" d="M66.287,72.566c0.08,0.045-1.407,2.696-3.32,5.92c-1.914,3.226-3.529,5.804-3.609,5.759
						c-0.079-0.045,1.407-2.695,3.321-5.921C64.592,75.1,66.208,72.522,66.287,72.566z"/>
				</g>
			</g>
		</g>
		<g>
			<g>
				<g>
					<path style="fill:#FF725E;" d="M56.939,66.901c0.057,0.07-1.596,1.441-3.692,3.063c-2.096,1.622-3.842,2.88-3.899,2.81
						c-0.057-0.07,1.595-1.441,3.692-3.063C55.136,68.089,56.882,66.831,56.939,66.901z"/>
				</g>
			</g>
		</g>
		<g>
			<g>
				<g>
					<path style="fill:#FF725E;" d="M91.166,82.584c-0.047,0.008-0.189-0.593-0.417-1.561c-0.227-0.969-0.55-2.304-0.953-3.766
						c-0.405-1.463-0.814-2.775-1.116-3.724c-0.302-0.949-0.489-1.538-0.444-1.554c0.041-0.015,0.306,0.546,0.667,1.48
						c0.361,0.934,0.808,2.243,1.215,3.714c0.406,1.471,0.694,2.822,0.863,3.805C91.149,81.962,91.209,82.577,91.166,82.584z"/>
				</g>
			</g>
		</g>
		<g>
			<g>
				<g>
					<path style="fill:#FF725E;" d="M107.198,71.511c-0.06,0.067-2.152-1.616-4.672-3.76c-2.52-2.145-4.514-3.937-4.453-4.004
						c0.061-0.067,2.152,1.616,4.673,3.76C105.265,69.651,107.259,71.444,107.198,71.511z"/>
				</g>
			</g>
		</g>
		<g>
			<g>
				<g>
					<path style="fill:#FF725E;" d="M113.339,56.294c-0.011,0.046-0.735-0.077-1.906-0.267c-1.171-0.19-2.79-0.434-4.588-0.635
						c-1.798-0.2-3.432-0.319-4.617-0.392c-1.185-0.074-1.919-0.113-1.919-0.16c0-0.042,0.737-0.084,1.928-0.069
						c1.191,0.015,2.838,0.098,4.646,0.299c1.807,0.202,3.43,0.484,4.594,0.732C112.641,56.05,113.349,56.253,113.339,56.294z"/>
				</g>
			</g>
		</g>
		<g>
			<g>
				<g>
					<path style="fill:#FF725E;" d="M113.359,41.329c0.022,0.087-3.4,0.973-7.643,1.979c-4.244,1.006-7.7,1.751-7.722,1.664
						c-0.022-0.087,3.4-0.973,7.643-1.979C109.88,41.988,113.338,41.243,113.359,41.329z"/>
				</g>
			</g>
		</g>
		<g>
			<g>
				<g>
					<path style="fill:#FF725E;" d="M95.497,23.895c0.077,0.049-1.561,2.591-3.656,5.677c-2.096,3.087-3.858,5.549-3.934,5.499
						c-0.077-0.049,1.56-2.591,3.657-5.678C93.659,26.307,95.421,23.845,95.497,23.895z"/>
				</g>
			</g>
		</g>
		<g>
			<g>
				<g>
					<path style="fill:#FF725E;" d="M77.771,20.252c0.047,0.002,0.042,0.809,0.023,2.112c-0.019,1.303-0.046,3.102-0.044,5.088
						c0.003,1.987,0.033,3.786,0.055,5.089c0.022,1.303,0.029,2.11-0.018,2.112c-0.044,0.002-0.135-0.801-0.217-2.103
						c-0.083-1.303-0.15-3.105-0.153-5.098c-0.002-1.992,0.062-3.794,0.141-5.097C77.638,21.053,77.727,20.25,77.771,20.252z"/>
				</g>
			</g>
		</g>
		<g>
			<g>
				<g>
					<path style="fill:#FF725E;" d="M64.347,36.525c-0.078,0.047-1.743-2.466-3.719-5.612c-1.976-3.147-3.514-5.735-3.435-5.782
						c0.078-0.047,1.743,2.466,3.719,5.613C62.888,33.89,64.426,36.479,64.347,36.525z"/>
				</g>
			</g>
		</g>
		<g>
			<g>
				<g>
					<path style="fill:#FF725E;" d="M56.328,43.159c-0.009,0.042-0.653-0.049-1.681-0.259c-1.028-0.21-2.438-0.546-3.975-0.987
						c-1.538-0.442-2.91-0.905-3.89-1.271c-0.981-0.366-1.572-0.629-1.556-0.67c0.017-0.043,0.637,0.144,1.634,0.454
						c0.998,0.31,2.375,0.737,3.906,1.177c1.531,0.439,2.926,0.808,3.936,1.074C55.713,42.943,56.338,43.113,56.328,43.159z"/>
				</g>
			</g>
		</g>
		<g>
			<g>
				<g>
					<path style="fill:#FF725E;" d="M52.825,54.979c0.009,0.089-2.25,0.373-5.044,0.635c-2.795,0.262-5.068,0.401-5.076,0.312
						c-0.009-0.089,2.249-0.373,5.045-0.635C50.543,55.03,52.816,54.89,52.825,54.979z"/>
				</g>
			</g>
		</g>
	</g>
</g>
<g id="Character_1_">
	<g>
		<g>
			<g>
				<path style="fill:#263238;" d="M190.61,188.173l-44.387-69.593c-3.319-0.554-6.626,2.913-5.916,6.203
					c-7.432,0.358-13.782,7.673-13.093,15.082c-5.696,0.539-11.053,3.916-13.996,8.822c-2.943,4.906-3.4,11.222-1.193,16.501
					c-2.066,3.82-1.921,8.74,0.367,12.431c2.288,3.691,6.63,6.01,10.97,5.859c-1.93,5.327,0.057,11.817,4.639,15.151
					c4.582,3.334,11.368,3.228,15.843-0.247c1.787,3.546,5.243,6.206,9.129,7.025c3.886,0.819,8.121-0.219,11.188-2.742
					c4.02,3.167,10.397,2.783,14.008-0.843c1.298-1.303,2.284-2.969,3.873-3.896c1.516-0.885,3.373-0.97,4.971-1.697
					C189.939,194.898,191.572,191.24,190.61,188.173z"/>
			</g>
			<g>
				<path style="fill:#FF725E;" d="M178.567,181.834c0,3.628-2.941,6.57-6.57,6.57s-6.57-2.941-6.57-6.57
					c0-3.628,2.941-6.57,6.57-6.57S178.567,178.206,178.567,181.834z"/>
			</g>
			<g>
				<path style="fill:#FF725E;" d="M169.639,184.662c-5.58,8.328-5.929,19.862-0.864,28.512c1.305-4.372,2.617-8.78,3.021-13.325
					C172.2,195.305,171.888,188.631,169.639,184.662"/>
			</g>
			<g>
				<g>
					<g>
						<g>
							<g>
								<g>
									<path style="fill:#263238;" d="M155.353,146.218c-3.304-3.992-3.083-10.452,0.485-14.21
										c-2.115-2.473-1.526-6.424,0.444-9.015c1.97-2.59,4.977-4.143,7.881-5.611c1.359-7.502,22.271-18.978,29.74-17.449
										c0.325-3.235,9.326-2.903,10.693,1.541c0,0,0.344-0.023,0,0c0,0,1.978-3.213,6.475-2.521
										c11.021,1.694,9.691,8.564,9.691,8.564s3.346-1.334,6.797,2.438c3.177,3.472,1.915,5.757,1.915,5.757
										c2.495,1.786,4.141,4.708,4.378,7.768c0.201,2.598-0.531,5.389,0.648,7.713c0.591,1.165,1.617,2.087,2.088,3.305
										c1.365,3.531-2.469,7.325-1.605,11.011c0.177,0.752,0.543,1.445,0.779,2.181c0.483,1.504,0.396,3.183-0.24,4.63
										c-0.49,1.116-1.308,2.151-1.337,3.37c-0.022,0.925,0.42,1.789,0.637,2.688c0.531,2.199-3.95,10.911-5.821,12.183
										l-57.193,2.524c-4.361-0.73-8.025-4.529-8.596-8.914c-0.095-0.729-0.134-1.523-0.607-2.085
										c-0.403-0.479-1.036-0.683-1.598-0.96c-3.753-1.848-4.376-6.89-4.134-11.067c0.034-0.585,0.073-1.184-0.093-1.746
										C156.536,147.497,155.896,146.874,155.353,146.218z"/>
								</g>
							</g>
						</g>
					</g>
					<g>
						<g>
							<g>
								<g>
									<path style="fill:#FFBF9D;" d="M171.746,145.723c-0.525-10.119,5.416-21.977,15.299-27.282
										c6.23-3.344,11.176-3.539,14.496-4.044c7.437-1.133,13.593,2.355,13.593,2.355c3.179,0.63,15.108,10.804,16.111,22.265
										c1.115,12.732,1.975,28.321,0.697,37.873c-2.57,19.206-17.175,22-17.175,22c-0.003-0.029,2.483,31.689,2.483,31.689
										l-39.704-14.009L171.746,145.723z"/>
								</g>
							</g>
						</g>
					</g>
					<g>
						<g>
							<g>
								<g>
									<path style="fill:#FF9A6C;" d="M204.709,174.983c0.048-0.936,0.498-1.796,1.11-2.411c1.224-1.229,3.134-1.491,4.617-0.633
										c1.482,0.858,1.793,2.491,1.674,4.361l0,0c-0.703,1.147-1.199,2.267-2.525,2.489c-0.206,0.035-0.414,0.058-0.624,0.07
										c-1.015,0.054-2.073-0.206-2.906-0.892C205.222,177.282,204.65,176.137,204.709,174.983z"/>
								</g>
							</g>
						</g>
					</g>
					<g>
						<g>
							<g>
								<g>
									<g>
										<g>
											<g>
												<g>
													<g>
														<path style="fill:#263238;" d="M224.645,154.544c0.077,1.295-0.955,2.428-2.305,2.534
															c-1.348,0.105-2.506-0.855-2.583-2.15c-0.077-1.294,0.955-2.429,2.302-2.535
															C223.409,152.286,224.567,153.25,224.645,154.544z"/>
													</g>
												</g>
											</g>
										</g>
									</g>
								</g>
							</g>
						</g>
					</g>
					<g>
						<g>
							<g>
								<g>
									<g>
										<g>
											<g>
												<g>
													<g>
														<g>
															<path style="fill:#263238;" d="M227.033,146.467c-0.296,0.328-2.189-1.002-4.829-0.931
																c-2.638,0.034-4.543,1.44-4.837,1.123c-0.145-0.14,0.152-0.725,0.98-1.36c0.815-0.632,2.218-1.261,3.863-1.295
																c1.645-0.031,3.043,0.541,3.854,1.141C226.89,145.748,227.179,146.32,227.033,146.467z"/>
														</g>
													</g>
												</g>
											</g>
										</g>
									</g>
								</g>
							</g>
						</g>
					</g>
					<g>
						<g>
							<g>
								<g>
									<g>
										<g>
											<g>
												<g>
													<g>
														<path style="fill:#263238;" d="M212.094,167.695c-0.016-0.149,1.618-0.473,4.269-0.879
															c0.672-0.086,1.307-0.236,1.41-0.698c0.147-0.491-0.152-1.211-0.499-1.987c-0.674-1.616-1.379-3.31-2.12-5.086
															c-2.947-7.241-5.099-13.203-4.806-13.319c0.293-0.117,2.92,5.659,5.867,12.901c0.71,1.786,1.39,3.489,2.036,5.118
															c0.274,0.76,0.734,1.618,0.415,2.638c-0.17,0.508-0.655,0.886-1.085,1.013c-0.429,0.143-0.808,0.159-1.141,0.187
															C213.768,167.793,212.108,167.845,212.094,167.695z"/>
													</g>
												</g>
											</g>
										</g>
									</g>
								</g>
							</g>
						</g>
					</g>
					<g>
						<g>
							<g>
								<g>
									<g>
										<g>
											<g>
												<g>
													<path style="fill:#FF9A6C;" d="M214.767,198.889c0,0-12.936,1.151-25.875-6.202c0,0,7.151,13.318,26.256,11.06
														L214.767,198.889z"/>
												</g>
											</g>
										</g>
									</g>
								</g>
							</g>
						</g>
					</g>
					<g>
						<g>
							<g>
								<g>
									<g>
										<g>
											<g>
												<g>
													<g>
														<g>
															<g>
																<path style="fill:#263238;" d="M225.039,135.952c-0.428,0.656-2.46,0.274-4.818,0.528
																	c-2.365,0.178-4.299,0.924-4.833,0.356c-0.238-0.278,0.005-0.913,0.807-1.581c0.791-0.665,2.171-1.297,3.794-1.447
																	c1.623-0.147,3.09,0.223,3.982,0.735C224.877,135.054,225.224,135.635,225.039,135.952z"/>
															</g>
														</g>
													</g>
												</g>
											</g>
										</g>
									</g>
								</g>
							</g>
						</g>
					</g>
					<g>
						<g>
							<g>
								<g>
									<g>
										<g>
											<g>
												<g>
													<g>
														<path style="fill:#263238;" d="M196.985,155.665c0.035,1.297,1.161,2.337,2.516,2.325
															c1.352-0.011,2.423-1.068,2.388-2.365c-0.035-1.296-1.161-2.338-2.512-2.327
															C198.021,153.309,196.95,154.369,196.985,155.665z"/>
													</g>
												</g>
											</g>
										</g>
									</g>
								</g>
							</g>
						</g>
					</g>
					<g>
						<g>
							<g>
								<g>
									<g>
										<g>
											<g>
												<g>
													<g>
														<g>
															<path style="fill:#263238;" d="M190.932,148.387c0.324,0.301,2.094-1.187,4.731-1.344
																c2.631-0.194,4.65,1.043,4.916,0.702c0.132-0.151-0.214-0.709-1.093-1.27c-0.867-0.559-2.319-1.065-3.96-0.957
																c-1.642,0.111-2.985,0.801-3.741,1.469C191.013,147.659,190.774,148.253,190.932,148.387z"/>
														</g>
													</g>
												</g>
											</g>
										</g>
									</g>
								</g>
							</g>
						</g>
					</g>
					<g>
						<g>
							<g>
								<g>
									<g>
										<g>
											<g>
												<g>
													<g>
														<g>
															<g>
																<path style="fill:#263238;" d="M190.566,138.04c0.556,0.566,2.552-0.181,4.995-0.362
																	c2.437-0.257,4.542,0.122,4.979-0.533c0.191-0.317-0.173-0.896-1.113-1.407c-0.927-0.509-2.447-0.879-4.124-0.729
																	c-1.677,0.152-3.1,0.784-3.912,1.45C190.564,137.127,190.319,137.761,190.566,138.04z"/>
															</g>
														</g>
													</g>
												</g>
											</g>
										</g>
									</g>
								</g>
							</g>
						</g>
					</g>
					<g>
						<g>
							<g>
								<g>
									<g>
										<g>
											<g>
												<g>
													<path style="fill:#FFBF9D;" d="M175.271,163.779c-0.038-1.425-1.767-4.744-3.18-4.929
														c-3.772-0.493-10.537-0.026-10.367,9.518c0.233,13.046,13.283,10.121,13.3,9.747
														C175.037,177.822,175.403,168.699,175.271,163.779z"/>
												</g>
											</g>
										</g>
									</g>
								</g>
							</g>
						</g>
					</g>
					<g>
						<g>
							<g>
								<g>
									<g>
										<g>
											<g>
												<g>
													<g>
														<path style="fill:#FF9A6C;" d="M171.34,173.413c-0.058-0.04-0.224,0.163-0.605,0.346
															c-0.372,0.178-1.014,0.308-1.699,0.065c-1.387-0.481-2.587-2.649-2.692-4.999c-0.055-1.187,0.174-2.322,0.578-3.266
															c0.382-0.961,0.987-1.639,1.679-1.774c0.687-0.172,1.186,0.234,1.353,0.598c0.182,0.362,0.103,0.625,0.173,0.645
															c0.037,0.033,0.276-0.223,0.162-0.759c-0.059-0.259-0.217-0.564-0.529-0.809c-0.317-0.249-0.779-0.37-1.262-0.309
															c-1.005,0.088-1.894,1.029-2.338,2.065c-0.499,1.042-0.784,2.318-0.723,3.651c0.13,2.627,1.52,5.063,3.416,5.575
															c0.921,0.223,1.683-0.067,2.072-0.383C171.322,173.729,171.385,173.436,171.34,173.413z"/>
													</g>
												</g>
											</g>
										</g>
									</g>
								</g>
							</g>
						</g>
					</g>
					<g>
						<g>
							<g>
								<g>
									<path style="fill:#263238;" d="M234.144,139.127c-2.677-1.581-4.415-3.78-4.329-6.887
										c-1.735,0.564-3.565-1.642-4.622-3.128c-1.057-1.486-2.325-2.218-2.293-4.042c0.006-0.36,0.019-0.741-0.157-1.056
										c-0.277-0.494-0.902-0.641-1.446-0.796c-2.803-0.798-5.119-3.122-5.908-5.928c-2.765,1.294-5.855,1.884-8.902,1.7
										c-1.302,1.992-3.666,3.243-6.045,3.199c-2.379-0.044-4.696-1.381-5.924-3.42c-0.748,1.652-2.414,2.742-4.161,3.232
										c-1.746,0.49-3.589,0.462-5.402,0.431c0.87,3.485-1.306,7.455-4.711,8.596c-0.46,0.154-0.993,0.309-1.196,0.75
										c-0.211,0.459,0.046,0.981,0.238,1.449c1.213,2.955-0.671,6.766-3.756,7.596c2.175,1.601,2.051,5.433-0.223,6.889
										c-0.467,0.299-1.078,0.659-0.991,1.206c0.033,0.208,0.169,0.383,0.3,0.549c1.004,1.266,2.007,2.651,2.166,4.259
										s-0.885,3.443-2.496,3.554c0.866,0.732,1.682,1.682,1.73,2.815c0.048,1.133-1.07,2.317-2.138,1.935
										c-0.454-0.163-6.982-1.276-7.277-1.657c-3.817-4.917,0.686-10.57,0.895-16.792c0.209-6.221,2.227-12.292,5.195-17.763
										c1.245-2.295,2.671-4.514,4.474-6.403c2.055-2.153,4.552-3.826,7.039-5.461c3.245-2.134,6.583-4.265,10.339-5.252
										c6.997-1.838,14.375,0.535,21.017,3.404c2.526,1.091,5.047,2.275,7.191,3.999c2.565,2.064,4.483,4.817,6.166,7.646
										c2.432,4.089,4.477,8.513,5.057,13.235"/>
								</g>
							</g>
						</g>
					</g>
					<g>
						<g>
							<g>
								<g>
									<path style="fill:#263238;" d="M204.224,172.541c0.312-0.212,1.605,1.945,4.367,2.375c2.762,0.438,4.919-1.178,5.116-0.886
										c0.111,0.118-0.262,0.725-1.218,1.331c-0.934,0.601-2.508,1.125-4.198,0.862c-1.688-0.267-2.921-1.232-3.523-2.074
										C204.147,173.295,204.069,172.616,204.224,172.541z"/>
								</g>
							</g>
						</g>
					</g>
				</g>
			</g>
			<g>
				<path style="fill:#FF725E;" d="M142.47,111.245c0,17.582,12.276,46.199,22.624,47.854l-0.105-0.749
					c-0.48-11.159-0.918-22.628,2.726-33.186c4.08-11.822,14.661-20.383,26.19-25.23C176.6,96.188,152.654,104.869,142.47,111.245"
					/>
			</g>
			<g>
				<path style="fill:#263238;" d="M187.326,99.097c-4.024,0.917-7.387,4.277-8.307,8.301c-5.307,0.882-9.448,6.278-8.926,11.633
					c-2.825,0.906-5.175,3.179-6.176,5.972s-0.627,6.041,0.98,8.535c-2.757,3.586-3.051,8.881-0.708,12.751
					c-1.842,1.664-2.831,4.228-2.583,6.698c0.248,2.47,1.727,4.786,3.863,6.051l4.574,0.062l-0.162-18.944l3.244-11.187
					l6.864-12.066l7.084-6.475l11.337-7.449C195.836,99.751,191.35,98.18,187.326,99.097z"/>
			</g>
			<g>
				<path style="fill:#FF725E;" d="M169.459,182.817c-1.211-2.612-7.201-3.842-11.875-2.797c-4.674,1.046-8.775,4.047-11.685,7.852
					c-2.91,3.804-4.699,8.371-5.767,13.04C151.979,201.112,163.843,193.251,169.459,182.817"/>
			</g>
			<g>
				<g>
					<path style="fill:#263238;" d="M175.155,187.718c0.014,0.027-0.188,0.177-0.599,0.37c-0.41,0.195-1.047,0.398-1.862,0.48
						c-1.591,0.185-4.081-0.309-5.783-2.266c-1.67-1.986-1.772-4.522-1.343-6.065c0.208-0.793,0.507-1.391,0.763-1.765
						c0.254-0.376,0.434-0.553,0.458-0.534c0.089,0.052-0.557,0.847-0.862,2.381c-0.318,1.486-0.147,3.835,1.38,5.646
						c1.553,1.788,3.846,2.321,5.363,2.237C174.231,188.137,175.117,187.622,175.155,187.718z"/>
				</g>
			</g>
			<g>
				<g>
					<path style="fill:#263238;" d="M154.945,187.494c-0.077-0.107,2.009-1.629,4.939-2.825c2.926-1.211,5.478-1.595,5.499-1.465
						c0.034,0.152-2.428,0.757-5.301,1.947C157.204,186.324,155.028,187.626,154.945,187.494z"/>
				</g>
			</g>
			<g>
				<g>
					<path style="fill:#263238;" d="M168.82,200.156c-0.146-0.011-0.061-2.755,0.037-6.136c0.102-3.382,0.18-6.126,0.327-6.128
						c0.141-0.002,0.296,2.749,0.194,6.144C169.279,197.429,168.961,200.167,168.82,200.156z"/>
				</g>
			</g>
			<g>
				<g>
					<path style="fill:#263238;" d="M159.154,111.304c0.039,0.018-0.246,0.685-0.723,1.902c-0.479,1.216-1.109,3.002-1.706,5.257
						c-1.209,4.488-2.074,11.005-1.022,18.057c1.048,7.055,3.775,13.038,6.238,16.979c1.228,1.984,2.352,3.508,3.164,4.532
						c0.81,1.026,1.277,1.58,1.245,1.609c-0.013,0.012-0.145-0.113-0.385-0.362c-0.234-0.254-0.598-0.613-1.017-1.118
						c-0.864-0.989-2.04-2.49-3.319-4.465c-2.564-3.922-5.382-9.955-6.442-17.098c-1.066-7.14-0.128-13.731,1.182-18.23
						c0.647-2.262,1.336-4.041,1.874-5.238c0.254-0.606,0.498-1.055,0.648-1.366C159.048,111.454,159.138,111.297,159.154,111.304z"
						/>
				</g>
			</g>
		</g>
		<g>
			<g>
				<path style="fill:#FF725E;" d="M146.503,466.058h20.669l0.602-26.187c0,0-9.39-1.689-14.446,4.932
					S146.503,466.058,146.503,466.058z"/>
			</g>
			<g>
				<path style="fill:#263238;" d="M139.719,382.365c0,15.355,1.806,52.389,49.227,56.002h-21.678l-0.919,32.003
					c0,0,133.477,3.259,137.641,3.325c7.979,0.127,27.22-9.585,30.833-33.521c3.613-23.936-16.259-31.614-22.13-36.13
					c-5.871-4.516-71.809-27.549-97.1-32.066l-74.067,7.226L139.719,382.365z"/>
			</g>
			<g>
				<path style="fill:#263238;" d="M333.342,293.326c-3.352-4.603-8.469-7.601-14.113-8.35c-7.652-1.016-19.399-0.778-30.831,6.563
					c-14.662,9.414-71.287,83.31-71.287,83.31l96.18,37.086c0,0,23.683-72.958,26.455-85.231
					C342.072,316.399,341.539,304.583,333.342,293.326z"/>
			</g>
			<g>
				<g>
					<path style="fill:#455A64;" d="M266.527,386.371c-0.017-0.004,0.045-0.305,0.181-0.873c0.152-0.611,0.358-1.438,0.617-2.48
						c0.266-1.078,0.61-2.391,1.061-3.902c0.444-1.513,0.915-3.247,1.545-5.129c0.6-1.893,1.272-3.961,2.076-6.153
						c0.753-2.21,1.686-4.525,2.635-6.973c1.984-4.861,4.349-10.133,7.127-15.52c2.793-5.382,5.759-10.344,8.605-14.758
						c1.449-2.19,2.827-4.27,4.209-6.154c1.333-1.918,2.669-3.635,3.876-5.211c1.185-1.593,2.364-2.951,3.353-4.178
						c0.988-1.229,1.887-2.247,2.627-3.075c0.716-0.8,1.284-1.435,1.704-1.904c0.394-0.431,0.607-0.652,0.62-0.64
						c0.013,0.012-0.173,0.256-0.542,0.71c-0.401,0.484-0.944,1.14-1.629,1.967c-0.715,0.847-1.591,1.882-2.555,3.127
						c-0.966,1.243-2.123,2.613-3.287,4.218c-1.186,1.587-2.501,3.313-3.816,5.237c-1.363,1.889-2.725,3.973-4.159,6.165
						c-2.815,4.416-5.76,9.37-8.545,14.737c-2.77,5.372-5.141,10.622-7.145,15.461c-0.959,2.437-1.904,4.74-2.673,6.939
						c-0.82,2.181-1.511,4.238-2.131,6.12c-0.651,1.872-1.147,3.595-1.616,5.098c-0.477,1.501-0.849,2.805-1.145,3.874
						c-0.299,1.031-0.536,1.849-0.711,2.453C266.641,386.083,266.544,386.375,266.527,386.371z"/>
				</g>
			</g>
			<g>
				<path style="fill:#455A64;" d="M151.382,327.687c0,0-3.081-51.505-3.962-64.271c-0.88-12.766-1.761-37.418,8.804-48.423
					c10.565-11.005,17.906-12.768,17.906-12.768l42.98,19.147c0,0,24.407,34.611,24.407,50.018c0,15.408-15.919,61.58-15.919,61.58
					L151.382,327.687z"/>
			</g>
			<g>
				<path style="fill:#FF725E;" d="M202.8,258.276l-0.231-1.913l38.947,1.279c0,0,4.299,14.161-1.794,37.105
					c-2.439,9.185-11.304,43.505-11.304,43.505l4.533,27.879l31.833,19.952c0,0-21.706,1.968-34.472,16.495
					c-12.766,14.527-22.003,38.729-22.003,38.729s-70.58,0.372-69.656-44.723c0.14-6.849,0.885-13.672,3.013-20.184l10.594-32.424
					l1.278-16.134c0,0,22.712-2.456,25.575-10.719C181.979,308.859,202.8,258.276,202.8,258.276z"/>
			</g>
			<g>
				<g>
					<path style="fill:#455A64;" d="M319.357,408.388c-0.008,0.016-0.206-0.063-0.574-0.228c-0.416-0.193-0.945-0.439-1.598-0.743
						c-1.386-0.648-3.394-1.58-5.903-2.669c-5.006-2.206-12.015-5.04-19.821-8.002c-7.813-2.953-14.932-5.504-20.089-7.338
						c-2.53-0.903-4.6-1.642-6.105-2.18c-0.676-0.25-1.224-0.452-1.654-0.611c-0.376-0.145-0.571-0.23-0.566-0.247
						c0.006-0.017,0.212,0.034,0.599,0.147c0.439,0.135,0.997,0.307,1.686,0.518c1.46,0.463,3.567,1.148,6.161,2.024
						c5.19,1.745,12.333,4.243,20.153,7.199c7.813,2.965,14.811,5.857,19.787,8.153c2.494,1.134,4.482,2.118,5.842,2.823
						c0.636,0.34,1.151,0.615,1.556,0.831C319.184,408.262,319.365,408.372,319.357,408.388z"/>
				</g>
			</g>
			<g>
				<g>
					<path style="fill:#455A64;" d="M281.367,445.951c-0.012,0.143-16.32-1.102-36.421-2.78
						c-20.108-1.679-36.393-3.156-36.381-3.299c0.012-0.143,16.317,1.101,36.424,2.78
						C265.09,444.33,281.379,445.807,281.367,445.951z"/>
				</g>
			</g>
			<g>
				<g>
					<path style="fill:#263238;" d="M183.779,391.052c-0.014-0.011,0.095-0.182,0.316-0.497c0.259-0.358,0.586-0.81,0.988-1.366
						c0.427-0.594,0.977-1.301,1.619-2.119c0.631-0.827,1.383-1.742,2.233-2.739c3.332-3.999,8.585-9.26,15.803-12.867
						c3.598-1.8,7.278-2.914,10.644-3.74c3.39-0.749,6.491-1.177,9.103-1.378c1.298-0.086,2.478-0.165,3.528-0.235
						c1.022-0.009,1.913-0.016,2.668-0.023c0.685,0.003,1.243,0.005,1.685,0.007c0.385,0.007,0.587,0.02,0.587,0.038
						s-0.202,0.041-0.587,0.067c-0.441,0.024-0.998,0.054-1.681,0.091c-0.753,0.031-1.641,0.068-2.658,0.111
						c-1.044,0.093-2.218,0.197-3.508,0.311c-2.596,0.247-5.671,0.711-9.027,1.479c-3.332,0.845-6.967,1.962-10.522,3.74
						c-7.127,3.562-12.363,8.716-15.757,12.642c-0.864,0.978-1.634,1.873-2.285,2.681c-0.662,0.799-1.234,1.486-1.686,2.061
						c-0.433,0.531-0.785,0.962-1.064,1.305C183.93,390.913,183.793,391.063,183.779,391.052z"/>
				</g>
			</g>
			<g>
				<g>
					<path style="fill:#FF725E;" d="M153.182,344.718c0.119,0.118-0.937,1.478-3.141,3.671c-2.213,2.175-5.59,5.186-10.213,8.312
						c-1.152,0.786-2.385,1.571-3.691,2.356c-0.652,0.394-1.325,0.783-2.016,1.171c-0.682,0.384-1.43,0.812-2.345,1.112
						c-0.457,0.147-0.962,0.256-1.5,0.272c-0.525,0.025-1.171-0.082-1.685-0.315c-0.533-0.23-1.029-0.576-1.437-1.073
						c-0.404-0.493-0.698-1.196-0.67-1.936c0.019-0.724,0.326-1.367,0.655-1.83c0.333-0.473,0.698-0.831,1.029-1.154
						c0.643-0.618,1.296-1.244,1.956-1.878c2.665-2.519,5.613-5.153,9.226-7.214c3.59-2.012,7.926-3.473,12.518-2.999
						c0.069,0.006,0.137,0.012,0.201,0.018l-0.495,2.549c-8.182-2.243-15.728-5.217-22.312-8.456
						c-0.41-0.205-0.818-0.408-1.224-0.611c-0.398-0.204-0.807-0.39-1.281-0.689c-0.454-0.291-0.985-0.701-1.334-1.371
						c-0.36-0.666-0.378-1.509-0.165-2.135c0.207-0.643,0.572-1.16,1.035-1.567c0.486-0.422,1.008-0.658,1.518-0.817
						c1.031-0.295,1.939-0.299,2.77-0.276c3.397,0.018,6.497,0.785,9.122,1.882c5.304,2.189,8.631,5.609,10.46,8.12
						c1.824,2.571,2.328,4.257,2.204,4.31c-0.196,0.104-1.008-1.408-2.993-3.676c-1.989-2.218-5.326-5.224-10.341-7.042
						c-2.482-0.914-5.357-1.513-8.439-1.438c-0.78-0.009-1.54,0.052-2.114,0.24c-0.283,0.095-0.536,0.236-0.685,0.379
						c-0.171,0.154-0.302,0.373-0.35,0.553c-0.047,0.192-0.029,0.283,0.03,0.39c0.058,0.112,0.232,0.284,0.524,0.458
						c0.278,0.171,0.684,0.355,1.088,0.551c0.402,0.191,0.806,0.383,1.212,0.577c6.522,3.062,13.943,5.907,21.963,8.105
						l-0.495,2.549c-0.053-0.005-0.111-0.01-0.169-0.015c-3.85-0.409-7.708,0.822-11.002,2.635c-3.315,1.849-6.171,4.31-8.837,6.744
						c-0.667,0.616-1.325,1.224-1.975,1.825c-0.641,0.567-1.027,1.097-1.012,1.371c-0.05,0.229,0.228,0.665,0.719,0.882
						c0.251,0.112,0.443,0.158,0.741,0.159c0.287,0.001,0.592-0.05,0.909-0.142c0.636-0.185,1.3-0.521,1.989-0.884
						c0.685-0.357,1.355-0.714,2.005-1.076c1.301-0.721,2.536-1.44,3.694-2.16c4.649-2.862,8.145-5.603,10.538-7.522
						C151.749,345.699,153.047,344.582,153.182,344.718z"/>
				</g>
			</g>
			<g>
				<g>
					<path style="fill:#FF725E;" d="M168.703,204.533c-0.029-0.085,0.185-0.234,0.636-0.446c0.227-0.097,0.507-0.245,0.857-0.342
						c0.366-0.085,0.776-0.18,1.232-0.285c1.879-0.348,4.756-0.09,7.891,1.246c3.129,1.333,6.462,3.659,9.629,6.718
						c3.18,3.053,6.238,6.814,9.01,11.025c5.561,8.436,8.992,16.967,10.849,23.265c1.856,6.321,2.223,10.396,1.906,10.453
						c-0.388,0.081-1.389-3.822-3.652-9.868c-2.264-6.032-5.88-14.231-11.276-22.416c-5.355-8.165-11.641-14.675-17.244-17.51
						c-2.78-1.424-5.288-1.922-7.033-1.904c-0.432,0.013-0.821,0.025-1.167,0.036c-0.341,0.012-0.623,0.075-0.862,0.087
						C169.004,204.635,168.732,204.618,168.703,204.533z"/>
				</g>
			</g>
			<g>
				<g>
					<path style="fill:#FFFFFF;" d="M231.093,354.694c-0.001,0.009-0.098,0.01-0.285,0.003c-0.217-0.011-0.491-0.026-0.831-0.043
						c-0.731-0.029-1.803-0.151-3.192-0.183c-2.771-0.137-6.795-0.164-11.738,0.24c-4.942,0.392-10.792,1.341-17.114,3.07
						c-3.152,0.891-6.432,1.937-9.754,3.237c-3.318,1.304-6.693,2.809-10.062,4.526c-13.504,6.917-23.761,16.409-30.071,24.013
						c-3.187,3.8-5.513,7.082-7.03,9.405c-0.786,1.144-1.322,2.081-1.728,2.69c-0.186,0.286-0.336,0.516-0.454,0.698
						c-0.105,0.156-0.162,0.233-0.17,0.229c-0.008-0.004,0.035-0.091,0.124-0.256c0.107-0.189,0.242-0.428,0.41-0.725
						c0.377-0.627,0.885-1.582,1.647-2.746c1.468-2.362,3.755-5.687,6.918-9.531c6.261-7.693,16.536-17.285,30.116-24.241
						c3.385-1.725,6.778-3.234,10.116-4.538c3.34-1.3,6.64-2.341,9.811-3.224c6.361-1.713,12.246-2.628,17.212-2.975
						c4.967-0.358,9.004-0.274,11.778-0.075c1.39,0.063,2.461,0.218,3.19,0.281c0.339,0.039,0.611,0.07,0.827,0.095
						C230.999,354.668,231.094,354.685,231.093,354.694z"/>
				</g>
			</g>
			<g>
				<g>
					<path style="fill:#FFFFFF;" d="M229.293,343.626c0.001,0.018-0.286,0.046-0.833,0.083c-0.594,0.034-1.39,0.079-2.39,0.136
						c-1.038,0.047-2.308,0.115-3.781,0.22c-1.473,0.099-3.151,0.189-5.002,0.354c-3.706,0.274-8.108,0.719-12.986,1.296
						c-4.874,0.609-10.219,1.379-15.803,2.353c-5.582,0.993-10.871,2.096-15.66,3.189c-4.782,1.124-9.072,2.21-12.648,3.219
						c-1.796,0.478-3.404,0.966-4.822,1.377c-1.42,0.405-2.636,0.775-3.628,1.085c-0.96,0.288-1.723,0.518-2.293,0.689
						c-0.526,0.152-0.805,0.224-0.811,0.207c-0.006-0.017,0.262-0.122,0.778-0.306c0.562-0.194,1.316-0.455,2.264-0.782
						c0.983-0.34,2.192-0.739,3.605-1.17c1.411-0.438,3.014-0.951,4.806-1.452c3.568-1.056,7.855-2.18,12.639-3.332
						c4.791-1.12,10.087-2.239,15.679-3.234c5.594-0.975,10.952-1.732,15.837-2.316c4.889-0.552,9.302-0.96,13.016-1.187
						c1.855-0.141,3.537-0.206,5.013-0.277c1.476-0.077,2.748-0.116,3.788-0.132c1.003-0.016,1.8-0.029,2.395-0.039
						C229.005,343.601,229.293,343.608,229.293,343.626z"/>
				</g>
			</g>
			<g>
				<g>
					<path style="fill:#FFFFFF;" d="M228.844,334.364c0.004,0.144-17.063,0.728-38.116,1.304c-21.06,0.577-38.13,0.928-38.134,0.784
						c-0.004-0.144,17.06-0.728,38.12-1.304C211.767,334.572,228.84,334.221,228.844,334.364z"/>
				</g>
			</g>
			<g>
				<g>
					<path style="fill:#FFFFFF;" d="M231.126,317.641c0.008,0.144-12.192,0.979-27.246,1.865
						c-15.06,0.887-27.271,1.489-27.279,1.345c-0.008-0.143,12.189-0.978,27.249-1.865
						C218.904,318.099,231.118,317.497,231.126,317.641z"/>
				</g>
			</g>
			<g>
				<g>
					<path style="fill:#FFFFFF;" d="M243.154,268.867c-0.002,0.144-9.102,0.121-20.323-0.051
						c-11.225-0.172-20.319-0.428-20.317-0.572c0.002-0.144,9.1-0.121,20.325,0.051C234.06,268.467,243.156,268.724,243.154,268.867
						z"/>
				</g>
			</g>
			<g>
				<g>
					<path style="fill:#FFFFFF;" d="M241.61,282.342c0,0.036-0.597,0.07-1.677,0.101c-1.08,0.033-2.644,0.051-4.576,0.049
						c-3.864-0.003-9.203-0.116-15.092-0.437c-5.89-0.324-11.21-0.793-15.052-1.213c-1.921-0.209-3.473-0.397-4.543-0.548
						c-1.07-0.149-1.66-0.248-1.656-0.283c0.004-0.036,0.601-0.005,1.678,0.082c1.164,0.098,2.7,0.227,4.556,0.383
						c3.847,0.325,9.163,0.736,15.045,1.059c5.88,0.32,11.209,0.492,15.068,0.589c1.862,0.047,3.403,0.087,4.571,0.117
						C241.012,282.272,241.61,282.306,241.61,282.342z"/>
				</g>
			</g>
			<g>
				<g>
					<path style="fill:#FFFFFF;" d="M239.667,295.953c-0.005,0.144-11.014-0.096-24.586-0.536
						c-13.577-0.44-24.576-0.913-24.571-1.057c0.005-0.144,11.011,0.096,24.588,0.536
						C228.67,295.336,239.671,295.81,239.667,295.953z"/>
				</g>
			</g>
			<g>
				<g>
					<path style="fill:#FFFFFF;" d="M197.658,375.307c0.009,0.016-0.189,0.155-0.573,0.405c-0.432,0.273-0.994,0.629-1.694,1.072
						c-0.744,0.452-1.643,1.021-2.663,1.719c-1.025,0.689-2.211,1.446-3.462,2.371c-0.633,0.453-1.296,0.927-1.984,1.419
						c-0.675,0.516-1.376,1.052-2.102,1.606c-1.468,1.09-2.953,2.359-4.541,3.662c-3.116,2.678-6.434,5.749-9.706,9.181
						c-3.251,3.455-6.139,6.934-8.631,10.201c-1.203,1.665-2.386,3.22-3.377,4.757c-0.506,0.759-0.996,1.493-1.467,2.2
						c-0.444,0.721-0.871,1.414-1.279,2.077c-0.839,1.31-1.503,2.55-2.114,3.623c-0.622,1.068-1.118,2.009-1.507,2.787
						c-0.385,0.733-0.694,1.323-0.931,1.775c-0.218,0.404-0.341,0.612-0.357,0.604c-0.016-0.008,0.074-0.231,0.262-0.649
						c0.215-0.464,0.496-1.068,0.845-1.821c0.361-0.794,0.832-1.751,1.432-2.836c0.588-1.09,1.232-2.347,2.053-3.674
						c0.401-0.671,0.82-1.373,1.255-2.103c0.451-0.722,0.948-1.456,1.448-2.225c0.979-1.553,2.154-3.124,3.352-4.804
						c2.481-3.297,5.372-6.801,8.637-10.271c3.287-3.447,6.629-6.521,9.775-9.19c1.603-1.298,3.104-2.559,4.589-3.639
						c0.735-0.548,1.435-1.091,2.127-1.587c0.698-0.485,1.369-0.951,2.011-1.397c1.268-0.908,2.472-1.646,3.515-2.313
						c1.038-0.677,1.955-1.222,2.716-1.648c0.722-0.409,1.301-0.738,1.746-0.99C197.433,375.4,197.649,375.292,197.658,375.307z"/>
				</g>
			</g>
			<g>
				<g>
					<path style="fill:#FFFFFF;" d="M238.199,369.895c0.003,0.009-0.073,0.047-0.224,0.113c-0.18,0.076-0.402,0.168-0.674,0.283
						c-0.635,0.253-1.506,0.6-2.608,1.039c-0.571,0.224-1.201,0.47-1.888,0.739c-0.677,0.307-1.41,0.64-2.196,0.996
						c-1.568,0.73-3.388,1.488-5.294,2.545c-0.965,0.506-1.975,1.035-3.026,1.586c-1.043,0.567-2.088,1.23-3.192,1.876
						c-2.232,1.255-4.468,2.834-6.862,4.428c-4.68,3.345-9.613,7.324-14.376,11.953c-4.719,4.677-8.794,9.534-12.219,14.155
						c-1.632,2.369-3.251,4.576-4.538,6.79c-0.662,1.095-1.34,2.13-1.924,3.164c-0.565,1.044-1.107,2.047-1.625,3.005
						c-1.083,1.891-1.861,3.702-2.608,5.263c-0.365,0.781-0.705,1.51-1.02,2.184c-0.275,0.684-0.527,1.312-0.755,1.881
						c-0.449,1.097-0.803,1.965-1.062,2.598c-0.117,0.271-0.212,0.492-0.289,0.672c-0.068,0.15-0.107,0.226-0.115,0.223
						c-0.008-0.003,0.014-0.085,0.065-0.241c0.064-0.184,0.143-0.411,0.24-0.69c0.237-0.642,0.562-1.523,0.972-2.637
						c0.216-0.576,0.455-1.211,0.715-1.902c0.288-0.685,0.631-1.415,0.983-2.208c0.724-1.576,1.481-3.405,2.547-5.314
						c0.511-0.967,1.045-1.979,1.602-3.032c0.577-1.043,1.249-2.088,1.905-3.192c1.276-2.233,2.889-4.459,4.517-6.846
						c3.419-4.658,7.502-9.547,12.243-14.245c4.785-4.65,9.751-8.637,14.466-11.975c2.412-1.591,4.666-3.162,6.916-4.406
						c1.114-0.64,2.167-1.297,3.22-1.857c1.061-0.543,2.079-1.064,3.053-1.562c1.923-1.039,3.76-1.777,5.344-2.484
						c0.796-0.344,1.531-0.679,2.219-0.959c0.694-0.254,1.331-0.487,1.909-0.698c1.118-0.401,2.001-0.718,2.646-0.949
						c0.279-0.095,0.507-0.172,0.692-0.234C238.115,369.908,238.196,369.886,238.199,369.895z"/>
				</g>
			</g>
			<g>
				<g>
					<path style="fill:#FFFFFF;" d="M252.618,378.591c0.006,0.017-0.276,0.142-0.818,0.365c-0.585,0.234-1.377,0.551-2.376,0.95
						c-0.521,0.204-1.095,0.429-1.72,0.674c-0.624,0.258-1.282,0.586-2,0.911c-1.423,0.679-3.089,1.356-4.814,2.34
						c-0.875,0.469-1.791,0.959-2.745,1.469c-0.955,0.509-1.89,1.142-2.89,1.74c-2.02,1.169-4.036,2.636-6.185,4.136
						c-4.201,3.133-8.592,6.888-12.767,11.269c-4.134,4.424-7.624,9.03-10.518,13.4c-1.383,2.227-2.732,4.324-3.795,6.402
						c-0.544,1.031-1.127,1.998-1.585,2.979c-0.462,0.978-0.905,1.917-1.329,2.815c-0.894,1.774-1.492,3.47-2.103,4.923
						c-0.29,0.733-0.586,1.405-0.815,2.041c-0.217,0.635-0.416,1.219-0.597,1.748c-0.354,1.015-0.635,1.821-0.843,2.416
						c-0.198,0.551-0.311,0.838-0.328,0.833c-0.017-0.005,0.062-0.302,0.228-0.864c0.185-0.603,0.435-1.42,0.751-2.449
						c0.168-0.535,0.354-1.125,0.555-1.768c0.215-0.642,0.498-1.322,0.777-2.062c0.587-1.468,1.163-3.18,2.039-4.97
						c0.416-0.906,0.851-1.854,1.305-2.841c0.45-0.99,1.027-1.966,1.565-3.006c1.052-2.096,2.393-4.212,3.773-6.457
						c2.886-4.407,6.385-9.048,10.542-13.497c4.198-4.406,8.625-8.172,12.864-11.3c2.167-1.498,4.203-2.958,6.243-4.117
						c1.01-0.592,1.955-1.219,2.919-1.722c0.963-0.502,1.888-0.985,2.772-1.446c1.743-0.967,3.427-1.623,4.865-2.279
						c0.726-0.313,1.391-0.629,2.023-0.874c0.633-0.23,1.214-0.442,1.741-0.634c1.015-0.361,1.82-0.648,2.414-0.86
						C252.319,378.666,252.612,378.574,252.618,378.591z"/>
				</g>
			</g>
			<g style="opacity:0.3;">
				<path d="M161.235,273.099c0,0,23.107,67.754,31.111,72.621c8.004,4.867,36.425-5.31,36.425-5.31l1.544-9.486l-51.794-62.679
					L161.235,273.099z"/>
			</g>
			<g>
				<g>
					<g>
						<g>
							<g>
								<g>
									<g>
										<g>
											<g>
												<g>
													<g>
														<g>
															<g>
																<g>
																	<g>
																		<g>
																			<g>
																				<path style="fill:#263238;" d="M147.584,469.563l-5.457-2.415c0,0-45.187,18.001-51.968,12.513l60.527-66.234
																					l20.499,29.393C157.554,448.433,153.33,453.983,147.584,469.563z"/>
																			</g>
																		</g>
																	</g>
																</g>
															</g>
														</g>
													</g>
												</g>
											</g>
										</g>
									</g>
								</g>
							</g>
							<g style="opacity:0.6;">
								<g>
									<g>
										<g>
											<g>
												<g>
													<g>
														<g>
															<g>
																<g>
																	<g>
																		<g>
																			<g>
																				<g>
																					<path style="fill:#FFFFFF;" d="M158.964,434.958c0.815-1.607,0.161-3.832-1.426-4.736
																						c-1.588-0.906-3.848-0.296-4.692,1.296c-0.844,1.592-0.14,4.285,1.536,5.008
																						c1.676,0.724,4.288-0.138,4.722-1.891"/>
																				</g>
																			</g>
																		</g>
																	</g>
																</g>
															</g>
														</g>
													</g>
												</g>
											</g>
										</g>
									</g>
								</g>
							</g>
							<g style="opacity:0.6;">
								<g>
									<g>
										<g>
											<g>
												<g>
													<g>
														<g>
															<g>
																<g>
																	<g>
																		<g>
																			<g>
																				<path style="fill:#FFFFFF;" d="M150.686,413.427l4.107,5.8l-58.832,60.94c0,0-3.998,1.757-5.803-0.505
																					L150.686,413.427z"/>
																			</g>
																		</g>
																	</g>
																</g>
															</g>
														</g>
													</g>
												</g>
											</g>
										</g>
									</g>
								</g>
							</g>
							<g>
								<g>
									<g>
										<g>
											<g>
												<g>
													<g>
														<g>
															<g>
																<g>
																	<g>
																		<g>
																			<g>
																				<g>
																					<path style="fill:#455A64;" d="M139.463,467.794c-0.319-0.311,1.01-2.064,1.408-4.621
																						c0.465-2.546-0.208-4.667,0.194-4.845c0.337-0.24,1.86,2.038,1.323,5.124
																						C141.88,466.544,139.7,468.141,139.463,467.794z"/>
																				</g>
																			</g>
																		</g>
																	</g>
																</g>
															</g>
														</g>
													</g>
												</g>
											</g>
										</g>
									</g>
								</g>
							</g>
							<g>
								<g>
									<g>
										<g>
											<g>
												<g>
													<g>
														<g>
															<g>
																<g>
																	<g>
																		<g>
																			<g>
																				<g>
																					<path style="fill:#455A64;" d="M131.491,470.474c-0.386-0.217,0.335-2.129-0.05-4.498
																						c-0.316-2.379-1.565-4.03-1.257-4.338c0.226-0.351,2.355,1.184,2.778,4.138
																						C133.412,468.724,131.81,470.753,131.491,470.474z"/>
																				</g>
																			</g>
																		</g>
																	</g>
																</g>
															</g>
														</g>
													</g>
												</g>
											</g>
										</g>
									</g>
								</g>
							</g>
							<g>
								<g>
									<g>
										<g>
											<g>
												<g>
													<g>
														<g>
															<g>
																<g>
																	<g>
																		<g>
																			<g>
																				<g>
																					<path style="fill:#455A64;" d="M119.885,466.45c0.198-0.358,2.251,0.692,3.291,3.167
																						c1.058,2.469,0.374,4.643-0.025,4.53c-0.437-0.064-0.505-1.929-1.39-3.949
																						C120.924,468.159,119.623,466.801,119.885,466.45z"/>
																				</g>
																			</g>
																		</g>
																	</g>
																</g>
															</g>
														</g>
													</g>
												</g>
											</g>
										</g>
									</g>
								</g>
							</g>
						</g>
					</g>
				</g>
			</g>
		</g>
		<g>
			<g>
				<g>
					<path style="fill:#455A64;" d="M346.765,155.802c-2.772-1.841-3.8-5.445-3.903-8.771c-0.104-3.326,0.502-6.671,0.069-9.969
						c-0.348-2.649,0.139-5.434,0.346-8.098c0.407-5.241,3.5-6.021,5.723-10.785c2.157-4.622-1.105-5.956,0.084-7.959
						c0.582-0.98,2.216-0.64,3.235-0.131c1.019,0.51,1.798,1.388,2.526,2.265c3.585,4.319,6.698,9.596,6.191,15.186
						c-0.252,2.777-1.383,5.391-1.981,8.115c-0.939,4.278-0.604,8.96-2.785,12.758c-2.031,3.536-5.843,5.594-9.462,7.473"/>
				</g>
				<g>
					<path style="fill:#455A64;" d="M342.231,172.619c1.108-7.283-2.431-16.192-7.718-21.321c-2.241-2.174-4.97-3.957-6.512-6.672
						c-1.775-3.125-1.716-7.054-3.577-10.129c-2.783-4.599-8.832-5.847-14.198-6.161c-5.366-0.314-16.667-6.618-15.444-3.589
						c3.975,11.48,3.123,10.83,17.349,21.363c5.841,4.324,0.495,17.21,16.673,22.212c4.442,1.373,9.904,1.273,13.32,4.426"/>
				</g>
				<g>
					<g>
						<path style="fill:#455A64;" d="M339.485,246.762c-0.059,0.085-0.114,0.175-0.162,0.272L339.485,246.762z"/>
					</g>
					<g>
						<path style="fill:#455A64;" d="M361.192,226.728c-8.226,3.163-15.318,9.268-19.815,16.848l-1.893,3.187
							c0.807-1.167,2.593-1.259,4.067-1.436c2.736-0.328,5.355-1.573,7.337-3.488c1.249-1.207,2.261-2.677,3.691-3.663
							c1.28-0.883,2.807-1.317,4.227-1.952c3.212-1.437,5.867-3.904,9.034-5.439c3.245-1.573,6.879-2.099,10.376-2.982
							c3.497-0.883,7.068-2.252,9.378-5.021C378.789,223.176,369.418,223.565,361.192,226.728z"/>
					</g>
				</g>
				<g>
					<path style="fill:#455A64;" d="M373.865,182.014c-3.015,1.397-5.103,4.303-8.068,5.802c-2.674,1.352-5.788,1.432-8.7,2.139
						c-6.978,1.695-15.617,14.637-20.314,21.11c1.889-0.094,5.643-1.675,9.12-1.624c3.477,0.051,8.042-0.932,11.5-1.293
						c11.337-1.183,16.782-6.698,25.365-14.003c5.164-4.395,11.373-6.162,14.643-12.103
						C390.101,185.271,381.117,178.654,373.865,182.014z"/>
				</g>
				<g>
					<path style="fill:#455A64;" d="M342.191,178.848c3.971-11.583,14.395-20.475,25.402-25.839s24.159-6.152,35.729-2.142
						c-6.587,8.664-13.276,9.752-23.867,12.259c-1.829,0.433-6.389-0.924-9.698,1.452c-1.331,0.956-1.634,4.784-9.312,6.205
						C352.901,172.179,346.468,173.713,342.191,178.848"/>
				</g>
				<g>
					<g>
						<path style="fill:#263238;" d="M350.565,131.487c0.009,0,0.016,0.127,0.02,0.376c0.002,0.275,0.004,0.641,0.007,1.105
							c-0.002,0.496-0.004,1.096-0.007,1.798c-0.037,0.715-0.079,1.533-0.126,2.451c-0.237,3.682-0.862,9.012-2.367,15.445
							c-1.445,6.447-3.759,13.966-6.332,22.294c-2.585,8.322-5.167,17.556-7.053,27.432c-3.907,19.748-4.616,38.053-4.242,51.209
							c0.146,6.59,0.623,11.906,0.909,15.58c0.181,1.811,0.323,3.228,0.423,4.224c0.041,0.463,0.073,0.827,0.097,1.1
							c0.019,0.248,0.024,0.376,0.015,0.377c0,0-1.355-8.07-1.812-21.271c-0.469-13.174,0.183-31.526,4.099-51.32
							c1.889-9.897,4.494-19.157,7.106-27.474c2.599-8.323,4.945-15.816,6.432-22.235c1.547-6.405,2.225-11.707,2.523-15.376
							c0.065-0.914,0.123-1.73,0.174-2.442c0.022-0.701,0.041-1.299,0.056-1.794c0.019-0.464,0.034-0.829,0.045-1.104
							C350.545,131.614,350.556,131.487,350.565,131.487z"/>
					</g>
				</g>
				<g>
					<g>
						<path style="fill:#263238;" d="M391.808,152.321c0,0.018-0.226,0.043-0.656,0.074c-0.43,0.038-1.066,0.051-1.881,0.127
							c-1.632,0.116-3.989,0.356-6.87,0.844c-2.876,0.501-6.287,1.24-9.945,2.476c-3.656,1.219-7.588,2.891-11.344,5.27
							c-7.507,4.827-13.212,10.691-16.835,15.256c-1.816,2.29-3.166,4.238-4.06,5.607c-0.462,0.675-0.788,1.222-1.03,1.579
							c-0.237,0.36-0.37,0.545-0.385,0.536c-0.016-0.009,0.086-0.212,0.295-0.59c0.214-0.375,0.512-0.939,0.949-1.633
							c0.844-1.407,2.153-3.395,3.941-5.726c3.57-4.648,9.272-10.598,16.846-15.468c3.805-2.408,7.78-4.082,11.473-5.285
							c3.695-1.22,7.136-1.927,10.035-2.384c2.904-0.444,5.278-0.629,6.918-0.683c0.82-0.045,1.458-0.025,1.89-0.029
							C391.581,152.293,391.808,152.303,391.808,152.321z"/>
					</g>
				</g>
				<g>
					<g>
						<path style="fill:#263238;" d="M306.496,134.086c0.005-0.017,0.193,0.022,0.542,0.123c0.35,0.099,0.859,0.264,1.51,0.496
							c1.293,0.476,3.171,1.192,5.307,2.462c1.054,0.647,2.203,1.425,3.144,2.597c0.897,1.174,1.646,2.538,2.392,3.996
							c0.73,1.465,1.421,3.037,2.042,4.706c0.666,1.675,0.967,3.495,1.823,5.129c1.705,3.324,4.769,5.379,7.353,7.309
							c2.639,1.911,4.892,3.83,6.624,5.595c1.705,1.792,2.967,3.346,3.765,4.471c0.366,0.527,0.666,0.958,0.906,1.304
							c0.202,0.301,0.301,0.464,0.286,0.474c-0.015,0.01-0.142-0.133-0.372-0.413c-0.26-0.33-0.585-0.74-0.982-1.242
							c-0.844-1.083-2.142-2.591-3.864-4.334c-1.752-1.717-3.998-3.581-6.647-5.468c-1.314-0.955-2.716-1.949-4.059-3.135
							c-1.342-1.18-2.591-2.614-3.474-4.322c-0.894-1.717-1.197-3.572-1.839-5.19c-0.607-1.652-1.284-3.216-1.993-4.67
							c-0.722-1.442-1.458-2.81-2.306-3.947c-0.862-1.106-1.972-1.893-2.994-2.545c-2.075-1.289-3.923-2.055-5.186-2.586
							c-0.594-0.237-1.08-0.43-1.471-0.586C306.667,134.175,306.491,134.103,306.496,134.086z"/>
					</g>
				</g>
				<g>
					<g>
						<path style="fill:#263238;" d="M381.897,187.687c0.01,0.015-0.144,0.142-0.446,0.371c-0.352,0.258-0.795,0.582-1.338,0.979
							c-1.172,0.836-2.874,2.039-5.052,3.42c-2.179,1.374-4.851,2.922-8.016,4.229c-3.161,1.313-6.776,2.333-10.486,3.575
							c-7.485,2.387-13.421,6.451-17.54,9.483c-2.068,1.524-3.707,2.808-4.85,3.681c-0.536,0.406-0.974,0.737-1.322,1
							c-0.306,0.224-0.471,0.335-0.483,0.322c-0.011-0.014,0.133-0.152,0.417-0.403c0.332-0.283,0.749-0.639,1.261-1.076
							c1.105-0.923,2.71-2.251,4.756-3.818c4.066-3.112,10.039-7.272,17.595-9.682c3.732-1.249,7.334-2.25,10.472-3.526
							c3.138-1.268,5.809-2.77,8.003-4.098c2.193-1.335,3.925-2.49,5.131-3.274c0.565-0.365,1.026-0.662,1.393-0.898
							C381.714,187.77,381.887,187.672,381.897,187.687z"/>
					</g>
				</g>
				<g>
					<path style="fill:#455A64;" d="M330.565,207.965c-5.253-5.614-3.921-15.439-9.554-20.672c-3.506-3.256-8.844-3.826-12.5-6.913
						c-2.387-2.015-3.847-4.932-6.12-7.074c-4.283-4.036-10.642-4.7-16.509-5.155c0.939,11.312,8.386,21.852,18.734,26.516
						c2.487,1.121,5.207,1.982,7.105,3.941c1.322,1.365,2.123,3.148,3.33,4.615c1.858,2.256,4.598,3.646,7.426,4.382
						c2.828,0.736,5.773,0.872,8.692,1.004"/>
				</g>
				<g>
					<g>
						<path style="fill:#263238;" d="M296.56,175.264c0.054-0.025,0.327,0.638,1.005,1.724c0.665,1.091,1.779,2.587,3.439,4.163
							c1.643,1.594,3.84,3.229,6.346,4.947c2.508,1.713,5.306,3.587,8.025,5.835c5.46,4.476,9.778,9.205,12.79,12.688
							c1.503,1.749,2.677,3.198,3.478,4.208c0.363,0.472,0.662,0.86,0.905,1.176c0.202,0.273,0.302,0.421,0.288,0.433
							c-0.014,0.011-0.141-0.115-0.369-0.366c-0.263-0.299-0.587-0.667-0.98-1.113c-0.901-1.025-2.118-2.409-3.598-4.094
							c-3.077-3.413-7.419-8.082-12.843-12.527c-2.701-2.234-5.465-4.102-7.969-5.844c-2.498-1.744-4.696-3.427-6.329-5.077
							c-1.65-1.632-2.738-3.188-3.357-4.324c-0.331-0.558-0.519-1.026-0.653-1.339C296.605,175.439,296.543,175.271,296.56,175.264z
							"/>
					</g>
				</g>
				<g>
					<path style="fill:#455A64;" d="M324.491,237.064c-0.158-4.163-1.475-8.544-4.937-10.784c-1.487-0.962-3.226-1.544-4.546-2.724
						c-1.287-1.15-2.051-2.755-3.017-4.185c-2.792-4.136-7.249-6.787-11.558-9.304c-1.701-0.993-3.401-1.986-5.102-2.979
						c-0.518-0.302-1.101-0.616-1.686-0.485c-0.565,0.126-0.97,0.654-1.12,1.213c-0.149,0.559-0.089,1.15-0.021,1.724
						c0.411,3.458,1.081,6.885,2,10.243c0.795,2.905,1.845,5.869,3.979,7.994c2.381,2.37,5.764,3.368,8.66,5.072
						c2.456,1.446,4.621,3.439,7.302,4.408C317.558,238.382,321.212,237.516,324.491,237.064"/>
				</g>
				<g>
					<g>
						<path style="fill:#263238;" d="M299.18,215.792c0.029-0.022,0.394,0.412,1.033,1.212c0.695,0.872,1.604,2.012,2.699,3.387
							c2.311,2.803,5.559,6.761,10.124,9.918c2.314,1.508,4.73,2.648,6.874,3.764c2.156,1.101,4.082,2.139,5.641,3.111
							c1.559,0.973,2.762,1.861,3.512,2.569c0.395,0.33,0.651,0.643,0.838,0.837c0.182,0.201,0.271,0.311,0.257,0.323
							c-0.036,0.035-0.434-0.37-1.227-1.006c-0.781-0.652-2.002-1.484-3.571-2.408c-1.571-0.924-3.502-1.923-5.668-2.998
							c-2.156-1.094-4.577-2.216-6.947-3.76c-4.657-3.224-7.875-7.252-10.123-10.123c-1.117-1.454-1.984-2.656-2.573-3.494
							C299.462,216.288,299.152,215.813,299.18,215.792z"/>
					</g>
				</g>
				<g>
					<g>
						<path style="fill:#263238;" d="M360.082,230.444c0.016,0.032-0.49,0.345-1.417,0.883c-0.466,0.265-1.034,0.593-1.676,1.003
							c-0.644,0.406-1.394,0.84-2.181,1.387c-1.606,1.043-3.453,2.381-5.434,3.954c-1.962,1.596-4.047,3.44-6.1,5.514
							c-2.039,2.09-3.848,4.206-5.41,6.196c-1.539,2.007-2.845,3.878-3.86,5.501c-0.532,0.797-0.954,1.554-1.349,2.205
							c-0.399,0.649-0.718,1.222-0.974,1.692c-0.522,0.937-0.827,1.448-0.859,1.432c-0.032-0.016,0.211-0.558,0.679-1.526
							c0.23-0.487,0.523-1.076,0.9-1.741c0.372-0.667,0.774-1.441,1.289-2.255c0.981-1.657,2.263-3.562,3.793-5.6
							c1.552-2.02,3.364-4.163,5.419-6.269c2.069-2.09,4.18-3.938,6.173-5.525c2.011-1.564,3.893-2.879,5.533-3.889
							c0.804-0.529,1.571-0.944,2.232-1.328c0.659-0.388,1.243-0.692,1.726-0.93C359.528,230.665,360.066,230.412,360.082,230.444z"
							/>
					</g>
				</g>
				<g>
					<path style="fill:#A87058;" d="M343.652,279.662c-1.488-3.696-2.984-7.408-5.001-10.845c-1.939-3.304-4.76-6.574-8.564-7.029
						c-2.829-0.339-5.652,1.008-7.737,2.95c-2.085,1.942-3.559,4.436-5.003,6.893c-2.421,4.119-4.842,8.238-7.263,12.357l4.04,5.433
						c7.169,2.779,15.199,3.288,22.661,1.435c3.601-0.894,7.632-3.04,7.911-6.741C344.813,282.58,344.227,281.089,343.652,279.662z"
						/>
				</g>
			</g>
			<g>
				<g>
					<path style="fill:#FFBF9D;" d="M333.525,277.075c0,0-6.638-2.353-9.322-2.942c-2.684-0.589-14.548-0.73-16.243-0.589
						c-1.695,0.141-19.562,12.614-19.562,12.614l6.574,15.17l3.666-1.371c0,0,14.972,3.531,21.469,4.237
						c6.497,0.706,13.983,0.989,17.514,0c3.531-0.989,10.311-5.226,10.311-5.226s0.283-1.977-3.531-1.836
						c-3.814,0.141-7.486,1.271-9.181,1.271c-1.695,0-7.91-0.565-7.91-0.565l13.701-1.271l11.017-7.403l-1.13-2.484
						c0,0,2.542-1.554,2.26-2.825c-0.283-1.271-2.119-2.684-4.52-2.401c-2.401,0.283-10.028,1.695-10.028,1.695
						s-11.017,0.565-16.243-0.283c-5.226-0.848-7.204-2.119-7.204-2.119l7.627-0.141c0,0,5.791,1.695,9.181,0.283
						C335.361,279.476,333.525,277.075,333.525,277.075z"/>
				</g>
				<g>
					<g>
						<path style="fill:#FF9A6C;" d="M323.747,291.539c0-0.036,0.393-0.076,1.102-0.117c0.821-0.05,1.822-0.112,2.999-0.184
							c2.53-0.171,6.017-0.507,9.832-1.139c3.814-0.638,7.223-1.449,9.672-2.107c1.137-0.313,2.104-0.579,2.897-0.798
							c0.684-0.191,1.068-0.281,1.08-0.247c0.012,0.034-0.351,0.189-1.017,0.439c-0.665,0.254-1.641,0.584-2.858,0.959
							c-2.433,0.751-5.85,1.626-9.688,2.267c-3.837,0.636-7.353,0.916-9.898,0.993c-1.273,0.04-2.303,0.044-3.015,0.019
							C324.141,291.603,323.748,291.574,323.747,291.539z"/>
					</g>
				</g>
				<g>
					<path style="fill:#FFBF9D;" d="M156.923,245.198c0,0,27.946,93.116,43.622,95.139c15.676,2.023,94.426-39.009,94.426-39.009
						l-6.574-15.17l-72.817,19.215c0,0-15.676-57.647-18.204-67.254c-2.528-9.608-15.17-33.374-24.272-29.835
						S153.383,226.488,156.923,245.198z"/>
				</g>
				<g>
					<path style="fill:#455A64;" d="M157.554,274.133l50.059-14.059c0,0-14.029-66.549-43.044-50.348
						C144.312,221.037,157.554,274.133,157.554,274.133z"/>
					<path style="fill:#263238;" d="M157.193,274.752l-0.125-0.499c-0.033-0.134-3.331-13.489-4.102-28.056
						c-1.044-19.698,2.777-32.116,11.359-36.907c5.445-3.041,10.767-3.418,15.815-1.122c7.845,3.568,14.937,13.384,21.081,29.175
						c4.555,11.707,6.858,22.52,6.881,22.627l0.097,0.458L157.193,274.752z M173.495,207.694c-2.833,0-5.735,0.824-8.683,2.469
						c-18.654,10.416-8.162,57.923-6.892,63.347l49.103-13.79c-0.487-2.171-2.74-11.753-6.739-22.027
						c-4.156-10.678-11.096-24.311-20.559-28.614C177.695,208.155,175.614,207.694,173.495,207.694z"/>
				</g>
			</g>
		</g>
	</g>
</g>
</svg>
